<svg version="1.1" id="Layer_1" xmlns="http://www.w3.org/2000/svg" xmlns:xlink="http://www.w3.org/1999/xlink" x="0px" y="0px"
	 width="100%" viewBox="0 0 917 240" enable-background="new 0 0 917 240" xml:space="preserve">

<path fill="#CCBDB8" opacity="1.000000" stroke="none" 
	d="
M190.875778,76.869347 
	C193.736832,81.256676 197.172485,85.383263 199.311920,90.098053 
	C201.923126,95.852516 205.050400,100.413101 211.642593,101.075111 
	C211.642593,101.936539 211.783142,102.386368 211.622208,102.565849 
	C206.469284,108.312157 208.540146,114.522232 209.634247,121.141281 
	C212.148102,136.349731 211.071320,151.530106 206.251907,166.263977 
	C204.823914,170.629623 203.848068,174.738037 206.099350,179.077515 
	C207.877716,182.505432 206.556366,184.288376 202.858444,183.940582 
	C199.559158,183.630295 198.348358,185.466202 196.873505,187.972504 
	C185.701202,206.958313 170.241730,221.282150 149.905151,230.033493 
	C145.075851,232.111664 140.580383,234.168655 140.030029,240.621719 
	C138.933334,241.000000 137.866653,241.000000 136.257736,240.673767 
	C133.098328,239.229919 130.562393,237.545532 127.840958,237.155502 
	C125.164787,236.771973 122.289330,237.631744 119.520363,238.067093 
	C102.698280,240.712006 86.757393,237.173157 70.809456,232.046204 
	C61.167866,228.946609 54.107254,219.103653 42.814640,221.896423 
	C42.045853,218.689636 42.303066,214.984818 40.629753,213.580795 
	C31.722927,206.107315 25.185556,196.860336 19.522949,187.109711 
	C28.098286,188.712692 36.298378,190.346268 44.770203,192.120239 
	C49.144257,196.522980 53.412655,200.527985 59.906063,201.280991 
	C57.320820,198.826477 54.735573,196.371964 52.608143,193.910461 
	C57.785076,193.930389 62.504189,193.957306 67.551491,194.065765 
	C70.941086,195.615005 74.002502,197.082703 77.063911,198.550400 
	C77.571289,197.896652 78.078659,197.242905 78.586037,196.589172 
	C76.961929,195.498642 75.337830,194.408127 74.123917,193.181061 
	C85.776428,190.349091 97.018753,187.653656 108.605515,185.011841 
	C115.538910,189.258331 122.597961,189.499130 130.236115,187.452469 
	C124.982887,186.020645 119.995827,184.661362 115.084717,182.947189 
	C120.875496,179.376968 126.590317,176.161606 132.664124,172.965820 
	C145.046738,177.837418 157.351074,178.026199 168.552567,175.977859 
	C158.466812,174.515411 147.237183,172.887115 136.092438,170.916840 
	C137.146957,169.697388 138.148651,168.852600 139.081116,167.937271 
	C146.488220,160.666351 154.420242,153.835175 161.077179,145.930847 
	C165.032135,141.234818 166.972748,134.842377 169.847214,129.020844 
	C169.992599,128.581268 170.006027,128.327988 170.284943,128.010834 
	C175.629440,123.501762 178.989548,108.473221 175.531372,104.297035 
	C180.743317,102.880844 179.397247,99.453148 178.082916,95.650482 
	C178.106018,94.486511 178.149551,93.711075 178.456390,92.645142 
	C178.882248,90.485069 179.044769,88.615501 179.560059,86.862350 
	C180.804840,87.412796 181.658951,88.075211 182.597183,88.231071 
	C184.301941,88.514267 186.056732,88.496292 187.790634,88.604019 
	C187.808838,86.726677 188.393875,84.617500 187.738693,83.015572 
	C185.793823,78.260231 181.642426,77.469116 177.042786,77.640305 
	C177.026382,76.194725 176.994354,75.143555 177.361877,74.065094 
	C182.132889,74.981651 186.504333,75.925499 190.875778,76.869347 
M114.263817,223.242188 
	C103.709183,221.362900 93.154556,219.483627 82.599930,217.604355 
	C102.373161,227.822403 122.991325,230.296570 144.496262,224.765778 
	C144.517349,224.297791 144.538437,223.829803 144.559525,223.361816 
	C134.761307,223.361816 124.963081,223.361816 114.263817,223.242188 
M127.257164,210.211899 
	C124.150337,210.211899 121.043510,210.211899 116.769554,210.211899 
	C125.385872,215.325333 140.260223,215.450851 145.926697,211.184174 
	C140.024521,210.871582 134.100830,210.557831 127.257164,210.211899 
M167.921478,196.920456 
	C165.634033,196.624313 163.346588,196.328186 160.014465,195.896790 
	C168.015640,201.769333 176.487473,202.023254 182.544830,196.951904 
	C177.731567,196.951904 173.280319,196.951904 167.921478,196.920456 
M192.172638,163.939301 
	C186.470917,162.487305 180.769211,161.035309 175.067490,159.583313 
	C174.937668,160.183609 174.807831,160.783905 174.678009,161.384201 
	C180.019775,165.029282 185.671036,167.270935 192.172638,163.939301 
M201.266006,138.562363 
	C199.159286,134.032349 195.512695,133.773727 190.698822,134.588882 
	C193.495529,138.518997 196.904266,139.064346 201.266006,138.562363 
z"/>
<path fill="#FFFFFF" opacity="1.000000" stroke="none" 
	d="
M0.999999,149.000000 
	C1.000000,99.738220 1.000000,50.476448 1.000000,1.000000 
	C52.020695,1.000000 103.041687,1.000000 154.526764,1.391635 
	C150.849640,16.963072 143.911942,30.841352 135.137177,43.675156 
	C134.292953,42.542576 133.669357,41.702183 132.880722,40.639355 
	C128.745438,46.172020 123.184471,43.490688 118.310539,43.924725 
	C113.086021,44.389988 107.643684,44.843231 104.388466,38.373749 
	C99.531898,47.740654 91.102547,47.253216 84.065208,45.672478 
	C71.524727,42.855606 65.378021,44.066971 58.137016,54.802830 
	C56.516380,57.205666 55.093342,57.407616 52.883602,56.391953 
	C51.399788,55.709957 49.936573,54.983154 47.628185,53.875141 
	C48.020020,61.318508 42.606113,64.174675 37.023796,67.150284 
	C26.983038,65.081039 17.365522,63.108635 7.503182,61.381565 
	C7.856261,69.846260 13.401443,75.168617 18.021872,79.602791 
	C15.521774,81.968300 13.356099,84.017395 10.986282,86.440277 
	C10.878345,92.541763 10.974546,98.269447 10.802601,104.206429 
	C9.395693,106.866669 8.256933,109.317612 7.063798,112.238693 
	C7.051678,115.215752 7.093934,117.722664 7.128125,120.639877 
	C7.054400,122.695992 6.988741,124.341805 6.640121,126.293785 
	C6.227587,132.371643 6.098013,138.143326 5.674382,144.067963 
	C3.920216,145.813950 2.460107,147.406967 0.999999,149.000000 
z"/>
<path fill="#FFFFFF" opacity="1.000000" stroke="none" 
	d="
M19.147707,187.140320 
	C25.185556,196.860336 31.722927,206.107315 40.629753,213.580795 
	C42.303066,214.984818 42.045853,218.689636 42.814640,221.896423 
	C54.107254,219.103653 61.167866,228.946609 70.809456,232.046204 
	C86.757393,237.173157 102.698280,240.712006 119.520363,238.067093 
	C122.289330,237.631744 125.164787,236.771973 127.840958,237.155502 
	C130.562393,237.545532 133.098328,239.229919 135.857742,240.673767 
	C91.087654,241.000000 46.175308,241.000000 1.000000,241.000000 
	C1.000000,211.312958 1.000000,181.625137 1.320496,151.597153 
	C3.751890,152.136841 5.862788,153.016678 7.983655,154.337372 
	C8.852195,166.551147 13.935593,176.867920 19.147707,187.140320 
z"/>
<path fill="#FCE4D9" opacity="1.000000" stroke="none" 
	d="
M135.357834,43.967339 
	C143.911942,30.841352 150.849640,16.963072 154.995422,1.391635 
	C155.444443,1.000000 155.888901,1.000000 156.666672,1.000000 
	C167.055115,8.258418 175.576660,17.032787 178.001358,29.486694 
	C179.545212,37.416416 178.793625,45.802864 178.887405,53.986622 
	C178.894989,54.647930 177.475723,55.325600 175.921799,56.001556 
	C160.965668,60.795326 146.660248,62.355984 132.165833,57.583229 
	C133.595947,56.785770 134.917633,56.213585 136.296310,55.984669 
	C150.882416,53.562756 163.899582,48.173443 173.750916,36.251900 
	C173.812408,35.795704 173.746445,35.554523 173.680481,35.313343 
	C173.392380,35.477913 173.104279,35.642483 172.484650,35.900421 
	C170.645981,37.013607 169.171066,38.085331 167.626465,39.044884 
	C157.096207,45.586601 146.308273,51.558365 134.002975,53.683235 
	C147.362137,43.146023 158.340881,31.246267 162.609146,14.436290 
	C153.987946,28.274923 144.318176,41.237892 131.690323,51.753063 
	C132.715942,48.961647 134.036880,46.464493 135.357834,43.967339 
z"/>
<path fill="#CEBFB9" opacity="1.000000" stroke="none" 
	d="
M7.973684,153.896515 
	C5.862788,153.016678 3.751890,152.136841 1.320496,151.128494 
	C1.000000,150.555557 1.000000,150.111099 0.999999,149.333328 
	C2.460107,147.406967 3.920216,145.813950 5.960608,144.346008 
	C7.018489,147.612915 7.496086,150.754715 7.973684,153.896515 
z"/>
<path fill="#735055" opacity="1.000000" stroke="none" 
	d="
M135.137177,43.675156 
	C134.036880,46.464493 132.715942,48.961647 131.713837,51.735458 
	C132.032669,52.012108 132.015961,51.955723 131.644989,51.802200 
	C131.167053,52.102364 131.060104,52.556046 130.983948,53.012901 
	C131.014740,53.016075 131.024368,52.954918 130.672180,52.847588 
	C130.197723,53.170040 130.075439,53.599827 129.987762,54.023781 
	C130.022354,54.017952 130.019669,53.947838 129.670670,53.977455 
	C129.213455,54.674278 129.105255,55.341484 129.050507,56.360271 
	C130.097275,57.130524 131.090561,57.549194 132.083862,57.967865 
	C146.660248,62.355984 160.965668,60.795326 175.511734,56.021317 
	C175.500854,56.926056 175.102341,57.816917 175.019745,58.001534 
	C180.260468,63.975586 185.608688,70.072166 190.916336,76.519043 
	C186.504333,75.925499 182.132889,74.981651 176.954346,73.974510 
	C171.549561,73.619446 166.951874,73.327682 162.177719,72.989746 
	C161.114349,73.079697 160.227463,73.215813 158.932892,73.562256 
	C151.857819,75.065292 145.003418,75.756836 138.557724,77.762169 
	C118.298882,84.064941 98.033806,87.836502 76.857620,82.349068 
	C73.994377,81.607101 70.006752,83.107086 67.185577,84.707436 
	C59.799278,88.897438 52.810860,93.203789 43.605793,92.336082 
	C37.489998,91.759583 31.368290,93.325287 26.336624,97.482849 
	C21.694994,101.318153 19.357815,107.617126 20.969019,112.047592 
	C20.996805,112.013374 20.925076,112.059052 20.893818,112.403328 
	C21.413292,113.715927 21.964024,114.684258 22.514755,115.652580 
	C22.124531,115.943947 21.734306,116.235306 21.344082,116.526672 
	C19.535975,114.301453 17.727867,112.076233 15.615735,109.476852 
	C13.009645,110.179688 10.063909,110.974113 7.118173,111.768555 
	C8.256933,109.317612 9.395693,106.866669 11.099609,104.050369 
	C13.091018,101.681496 14.512802,99.674782 15.944366,97.675072 
	C19.971628,92.049515 18.031029,87.307442 11.190422,86.066483 
	C13.356099,84.017395 15.521774,81.968300 18.021872,79.602791 
	C13.401443,75.168617 7.856261,69.846260 7.626959,61.711845 
	C12.186934,67.980095 16.378305,74.163406 20.792820,80.675903 
	C23.298878,78.570366 24.655424,77.430626 25.587626,76.647408 
	C24.920801,73.145607 24.359409,70.197479 23.798016,67.249352 
	C24.135145,67.183075 24.472275,67.116798 24.809404,67.050522 
	C25.574415,69.345963 26.339428,71.641396 27.141392,74.047714 
	C28.661791,73.620667 29.853035,73.286072 31.134560,73.308975 
	C28.870533,76.597046 26.516226,79.527618 24.161917,82.458183 
	C24.567869,82.771736 24.973824,83.085289 25.379776,83.398842 
	C29.376978,79.729202 33.374180,76.059570 37.936203,71.871399 
	C35.050575,72.340988 33.018261,72.671722 31.061096,72.672729 
	C33.239841,70.644379 35.343437,68.945755 37.447037,67.247124 
	C42.606113,64.174675 48.020020,61.318508 47.628185,53.875141 
	C49.936573,54.983154 51.399788,55.709957 52.883602,56.391953 
	C55.093342,57.407616 56.516380,57.205666 58.137016,54.802830 
	C65.378021,44.066971 71.524727,42.855606 84.065208,45.672478 
	C91.102547,47.253216 99.531898,47.740654 104.388466,38.373749 
	C107.643684,44.843231 113.086021,44.389988 118.310539,43.924725 
	C123.184471,43.490688 128.745438,46.172020 132.880722,40.639355 
	C133.669357,41.702183 134.292953,42.542576 135.137177,43.675156 
M89.650497,70.163513 
	C96.879166,64.840027 96.939789,56.833984 88.674683,51.610176 
	C93.327881,58.375237 91.719330,64.219604 88.695259,70.161011 
	C88.778328,70.089111 88.861389,70.017212 89.650497,70.163513 
M63.629135,72.273560 
	C66.323181,72.659737 69.010918,73.098610 71.712456,73.422226 
	C79.850777,74.397118 86.088272,67.444313 83.821724,59.633373 
	C83.408928,58.210789 81.366081,57.261200 79.780128,55.426205 
	C73.507622,51.441204 69.600639,50.900692 66.623817,55.311268 
	C64.586922,58.329208 64.844887,62.896011 63.467899,67.051735 
	C63.122356,67.576973 62.776817,68.102211 62.212433,68.960098 
	C61.233521,66.439835 60.365482,64.205025 59.332787,61.546288 
	C58.491135,66.095398 58.679192,69.760780 63.629135,72.273560 
M110.127663,74.056389 
	C113.901955,74.947014 117.676247,75.837639 121.450531,76.728256 
	C121.805313,76.169121 122.160088,75.609978 122.514862,75.050842 
	C121.860970,72.974022 121.777550,70.134758 120.362129,69.075699 
	C119.337425,68.308975 116.455772,69.696068 114.570572,70.511787 
	C113.080055,71.156731 111.845619,72.393501 110.127663,74.056389 
M35.114330,89.820656 
	C36.118614,89.544693 37.122898,89.268730 38.984619,88.757156 
	C30.032471,87.005997 26.007103,88.236221 23.670380,92.860344 
	C27.178198,91.891144 30.755251,90.902809 35.114330,89.820656 
M115.146919,62.820942 
	C116.260597,60.823704 117.374275,58.826466 118.487953,56.829224 
	C118.148727,56.433163 117.809502,56.037102 117.470284,55.641045 
	C115.884819,56.119190 112.942207,56.615044 112.948174,57.072430 
	C112.974403,59.082466 113.852531,61.081390 115.146919,62.820942 
z"/>
<path fill="#FFFFFF" opacity="1.000000" stroke="none" 
	d="
M625.297241,95.288574 
	C621.796631,102.839760 618.292297,109.988243 615.335510,117.356468 
	C613.644287,121.570900 610.609131,123.186394 606.624451,124.049545 
	C604.734253,114.660301 602.650330,113.000092 592.947327,113.000008 
	C589.620483,112.999977 586.288757,112.887604 582.968201,113.032158 
	C579.759827,113.171822 576.563049,113.576317 573.136353,113.884712 
	C573.680298,104.845139 580.660461,96.446793 574.229492,86.908875 
	C578.582947,86.908875 582.583069,86.908875 585.789062,86.908875 
	C587.161865,90.177658 588.021851,94.018425 590.168823,96.900436 
	C593.099609,100.834587 597.457703,98.169632 600.954956,97.404785 
	C609.000061,95.645317 616.896240,93.207756 624.865723,91.094002 
	C625.448792,90.939362 626.135559,91.175697 627.139709,91.261513 
	C626.523315,92.678383 626.023132,93.828163 625.297241,95.288574 
z"/>
<path fill="#FFFFFF" opacity="1.000000" stroke="none" 
	d="
M656.820435,89.541382 
	C656.248596,88.683022 655.841187,88.196754 655.080261,87.288498 
	C659.234863,87.288498 662.884460,87.288498 667.010254,87.288498 
	C667.010254,89.006195 666.850952,90.638481 667.040405,92.229248 
	C667.593750,96.876778 671.606262,99.574310 676.127014,98.390671 
	C685.368896,95.970970 694.597229,93.499626 703.842468,91.093292 
	C704.427979,90.940903 705.111206,91.164177 706.340576,91.257660 
	C700.419922,103.226555 694.685547,114.818947 688.696960,126.925209 
	C687.526001,125.627640 687.144470,125.396927 687.157959,125.192184 
	C687.781799,115.702950 685.027527,112.627861 674.122681,112.983192 
	C670.796448,113.091583 667.456909,112.866898 664.135925,113.038002 
	C660.910645,113.204178 657.701477,113.682457 655.599426,113.905479 
	C656.067566,105.798889 656.526245,97.856186 656.820435,89.541382 
z"/>
<path fill="#FFFFFF" opacity="1.000000" stroke="none" 
	d="
M327.328461,80.039276 
	C336.019379,80.705925 344.242645,81.402504 352.465881,82.099075 
	C352.421326,82.399384 352.376770,82.699692 352.332214,83.000000 
	C345.973297,83.000000 339.600342,82.735603 333.259308,83.072433 
	C326.573364,83.427589 319.808990,83.832390 313.280731,85.187622 
	C307.172791,86.455597 301.329163,88.996941 295.122406,90.192947 
	C304.630005,87.677322 312.400909,79.983490 323.083160,80.942085 
	C324.306396,81.051857 325.599884,80.379120 327.328461,80.039276 
z"/>
<path fill="#FFFFFF" opacity="1.000000" stroke="none" 
	d="
M850.711548,80.958435 
	C859.293396,78.575966 866.854492,81.145714 874.470947,83.685196 
	C856.822266,81.055473 839.646851,83.894562 822.620789,87.936180 
	C827.009766,86.303825 831.299927,84.275436 835.815063,83.148361 
	C840.513550,81.975494 845.429321,81.673004 850.711548,80.958435 
z"/>
<path fill="#FFFFFF" opacity="1.000000" stroke="none" 
	d="
M350.174133,56.633270 
	C351.105957,56.974300 351.727112,57.056293 352.348297,57.138283 
	C352.339569,57.423603 352.330841,57.708920 352.322113,57.994236 
	C338.939514,57.994236 325.556915,57.994236 311.800781,57.994236 
	C324.539673,53.775925 337.091949,52.829468 350.174133,56.633270 
z"/>
<path fill="#FFFFFF" opacity="1.000000" stroke="none" 
	d="
M867.803833,57.000000 
	C857.452393,57.000000 847.577454,57.000000 839.872192,57.000000 
	C850.529785,53.343273 865.000427,53.075169 877.247375,57.923985 
	C874.258362,57.615990 871.269409,57.307995 867.803833,57.000000 
z"/>
<path fill="#FFFFFF" opacity="1.000000" stroke="none" 
	d="
M862.892517,153.018112 
	C858.108215,155.022339 853.713196,157.008072 849.255188,158.840698 
	C848.709961,159.064850 847.827209,158.468155 847.100891,158.251846 
	C847.327820,157.531433 847.381531,156.315125 847.808105,156.166107 
	C852.981995,154.358765 858.207153,152.696915 863.434387,151.046051 
	C863.757080,150.944138 864.208740,151.250763 864.952393,151.472092 
	C864.218506,152.115311 863.740601,152.534195 862.892517,153.018112 
z"/>
<path fill="#FFFFFF" opacity="1.000000" stroke="none" 
	d="
M727.314941,208.308899 
	C733.571838,206.593369 739.477295,205.107132 745.382751,203.620880 
	C745.466492,203.995071 745.550293,204.369278 745.634033,204.743469 
	C736.687988,207.076645 727.742004,209.409821 718.795959,211.742996 
	C718.690247,211.319290 718.584595,210.895599 718.478882,210.471893 
	C721.307129,209.827332 724.135315,209.182755 727.314941,208.308899 
z"/>
<path fill="#FFFFFF" opacity="1.000000" stroke="none" 
	d="
M853.267578,73.000000 
	C851.387329,73.000000 849.970337,73.000000 848.553406,73.000000 
	C848.555298,72.612587 848.557251,72.225166 848.559143,71.837753 
	C855.525024,71.837753 862.490967,71.837753 869.456848,71.837753 
	C869.458191,72.225166 869.459534,72.612587 869.460815,73.000000 
	C864.217529,73.000000 858.974182,73.000000 853.267578,73.000000 
z"/>
<path fill="#FFFFFF" opacity="1.000000" stroke="none" 
	d="
M713.613586,213.010223 
	C708.582031,214.027283 703.940430,215.034897 699.298889,216.042526 
	C699.164062,215.517944 699.029236,214.993362 698.894409,214.468796 
	C701.070251,213.941620 703.230164,213.332062 705.425903,212.907730 
	C708.294312,212.353424 711.185303,211.901703 714.081970,211.523514 
	C714.505005,211.468307 715.013062,212.064453 715.481812,212.359177 
	C714.989075,212.573044 714.496338,212.786911 713.613586,213.010223 
z"/>
<path fill="#FFFFFF" opacity="1.000000" stroke="none" 
	d="
M338.853455,73.000000 
	C333.795807,73.000000 329.214294,73.000000 324.632751,73.000000 
	C324.633453,72.607788 324.634125,72.215576 324.634827,71.823364 
	C331.532135,71.823364 338.429474,71.823364 345.326813,71.823364 
	C345.334351,72.215576 345.341888,72.607788 345.349426,73.000000 
	C343.342804,73.000000 341.336212,73.000000 338.853455,73.000000 
z"/>
<path fill="#FEE6DB" opacity="1.000000" stroke="none" 
	d="
M162.354202,73.035919 
	C166.951874,73.327682 171.549561,73.619446 176.554779,74.001801 
	C176.994354,75.143555 177.026382,76.194725 176.824799,77.934776 
	C177.463242,81.331085 178.335266,84.038506 179.207291,86.745926 
	C179.044769,88.615501 178.882248,90.485069 178.344025,92.314896 
	C172.639130,84.859360 158.894073,82.222954 151.528076,87.350822 
	C150.771164,87.877754 150.122269,89.702454 150.456680,90.481155 
	C154.733322,100.439651 169.749481,103.396591 178.103348,96.039009 
	C179.397247,99.453148 180.743317,102.880844 175.531372,104.297035 
	C178.989548,108.473221 175.629440,123.501762 169.930725,127.920227 
	C163.425232,126.336189 157.643265,124.784409 151.861282,123.232628 
	C151.712708,123.823242 151.564133,124.413849 151.415543,125.004463 
	C156.907562,128.864899 162.969910,130.543610 169.819016,129.212646 
	C166.972748,134.842377 165.032135,141.234818 161.077179,145.930847 
	C154.420242,153.835175 146.488220,160.666351 139.081116,167.937271 
	C138.148651,168.852600 137.146957,169.697388 135.696716,170.891632 
	C133.700226,171.208405 132.184357,171.208405 130.210129,171.208405 
	C131.177460,172.010818 131.741302,172.478531 132.305130,172.946228 
	C126.590317,176.161606 120.875496,179.376968 114.707230,182.857559 
	C110.912003,181.816833 107.570213,180.510849 102.859360,178.669830 
	C105.303848,181.515564 106.782463,183.236908 108.261086,184.958237 
	C97.018753,187.653656 85.776428,190.349091 73.812668,193.056030 
	C69.206917,189.702194 65.322586,186.336853 61.438259,182.971497 
	C61.034679,183.270203 60.631100,183.568909 60.227520,183.867615 
	C62.559448,187.239822 64.891373,190.612015 67.223305,193.984222 
	C62.504189,193.957306 57.785076,193.930389 52.300167,193.767212 
	C44.565716,184.854309 37.597057,176.077682 30.156563,166.706802 
	C33.058247,176.759201 38.337807,184.617050 44.498474,191.979843 
	C36.298378,190.346268 28.098286,188.712692 19.522949,187.109711 
	C13.935593,176.867920 8.852195,166.551147 7.983653,154.337372 
	C7.496086,150.754715 7.018489,147.612915 6.254665,144.193054 
	C6.098013,138.143326 6.227587,132.371643 6.970091,126.481644 
	C10.221663,126.363342 12.860303,126.363342 15.498943,126.363342 
	C15.574425,125.980362 15.649906,125.597382 15.725387,125.214401 
	C12.862322,123.552795 9.999256,121.891190 7.136190,120.229584 
	C7.093934,117.722664 7.051678,115.215752 7.063797,112.238693 
	C10.063909,110.974113 13.009645,110.179688 15.615735,109.476852 
	C17.727867,112.076233 19.535975,114.301453 21.344082,116.526672 
	C21.734306,116.235306 22.124531,115.943947 22.514755,115.652580 
	C21.964024,114.684258 21.413292,113.715927 21.249485,112.391594 
	C23.696672,114.041962 25.756935,116.048340 27.983639,118.394302 
	C37.996105,122.565224 49.725933,113.932426 50.978325,102.140427 
	C51.329826,98.830872 50.195309,97.597534 46.977264,97.457901 
	C36.834141,91.494270 23.430681,99.230812 20.941233,112.081802 
	C19.357815,107.617126 21.694994,101.318153 26.336624,97.482849 
	C31.368290,93.325287 37.489998,91.759583 43.605793,92.336082 
	C52.810860,93.203789 59.799278,88.897438 67.185577,84.707436 
	C70.006752,83.107086 73.994377,81.607101 76.857620,82.349068 
	C98.033806,87.836502 118.298882,84.064941 138.557724,77.762169 
	C145.003418,75.756836 151.857819,75.065292 158.825821,73.965225 
	C157.078430,75.262520 155.030426,76.367157 152.982422,77.471794 
	C153.035553,78.127281 153.088684,78.782761 153.141815,79.438240 
	C156.444519,79.675995 159.747238,79.913757 163.049942,80.151505 
	C162.818039,77.779640 162.586121,75.407784 162.354202,73.035919 
M127.820610,145.674316 
	C127.682678,145.735870 127.544746,145.797440 127.406815,145.859009 
	C127.622871,145.882507 127.838921,145.906006 127.712631,146.616608 
	C132.298340,156.666229 142.101273,159.033722 152.553238,151.948792 
	C143.162354,152.971893 135.321182,150.437607 127.820610,145.674316 
M37.396008,125.333008 
	C36.828308,125.646049 36.260609,125.959099 35.614750,126.315247 
	C42.525021,130.446213 51.215984,131.324356 54.254269,128.274002 
	C57.078381,125.438705 56.745346,117.826111 53.550053,112.732887 
	C50.496357,119.505753 45.757877,124.153450 37.396008,125.333008 
M83.092361,90.988647 
	C80.274132,90.968048 77.434364,90.714859 74.641991,90.973488 
	C68.085747,91.580696 62.909458,96.824348 62.676003,101.641808 
	C71.203354,98.529343 80.164261,95.258629 88.721779,92.135155 
	C87.512619,91.861618 85.739563,91.460518 83.092361,90.988647 
M89.321724,156.919556 
	C90.487984,156.919556 91.654251,156.919556 92.749664,156.919556 
	C86.459129,153.342697 80.398254,149.896423 74.049141,146.286255 
	C76.432274,153.377884 81.817841,156.018936 89.321724,156.919556 
M93.745209,121.248192 
	C93.104836,121.248192 92.464462,121.248192 91.824081,121.248192 
	C91.652542,121.708115 91.481003,122.168037 91.309464,122.627953 
	C95.496872,124.392174 99.684280,126.156395 103.871689,127.920616 
	C104.153580,127.259651 104.435471,126.598686 104.717354,125.937721 
	C101.279427,124.450485 97.841492,122.963242 93.745209,121.248192 
M109.318398,114.318008 
	C112.226006,115.022758 115.133606,115.727516 118.041214,116.432266 
	C118.196976,115.790924 118.352737,115.149582 118.508492,114.508240 
	C114.648613,113.502052 110.788734,112.495865 106.928848,111.489670 
	C106.791885,111.948387 106.654922,112.407104 106.517960,112.865814 
	C107.215103,113.249886 107.912254,113.633965 109.318398,114.318008 
z"/>
<path fill="#745155" opacity="1.000000" stroke="none" 
	d="
M178.082916,95.650482 
	C169.749481,103.396591 154.733322,100.439651 150.456680,90.481155 
	C150.122269,89.702454 150.771164,87.877754 151.528076,87.350822 
	C158.894073,82.222954 172.639130,84.859360 178.080688,92.605385 
	C178.149551,93.711075 178.106018,94.486511 178.082916,95.650482 
z"/>
<path fill="#78575B" opacity="1.000000" stroke="none" 
	d="
M114.714340,223.302002 
	C124.963081,223.361816 134.761307,223.361816 144.559525,223.361816 
	C144.538437,223.829803 144.517349,224.297791 144.496262,224.765778 
	C122.991325,230.296570 102.373161,227.822403 82.599930,217.604355 
	C93.154556,219.483627 103.709183,221.362900 114.714340,223.302002 
z"/>
<path fill="#7A595C" opacity="1.000000" stroke="none" 
	d="
M44.770203,192.120239 
	C38.337807,184.617050 33.058247,176.759201 30.156563,166.706802 
	C37.597057,176.077682 44.565716,184.854309 51.842350,193.774200 
	C54.735573,196.371964 57.320820,198.826477 59.906063,201.280991 
	C53.412655,200.527985 49.144257,196.522980 44.770203,192.120239 
z"/>
<path fill="#745256" opacity="1.000000" stroke="none" 
	d="
M179.560059,86.862350 
	C178.335266,84.038506 177.463242,81.331085 176.809174,78.329193 
	C181.642426,77.469116 185.793823,78.260231 187.738693,83.015572 
	C188.393875,84.617500 187.808838,86.726677 187.790634,88.604019 
	C186.056732,88.496292 184.301941,88.514267 182.597183,88.231071 
	C181.658951,88.075211 180.804840,87.412796 179.560059,86.862350 
z"/>
<path fill="#7A595D" opacity="1.000000" stroke="none" 
	d="
M132.664124,172.965820 
	C131.741302,172.478531 131.177460,172.010818 130.210129,171.208405 
	C132.184357,171.208405 133.700226,171.208405 135.611816,171.233612 
	C147.237183,172.887115 158.466812,174.515411 168.552567,175.977859 
	C157.351074,178.026199 145.046738,177.837418 132.664124,172.965820 
z"/>
<path fill="#7B5A5E" opacity="1.000000" stroke="none" 
	d="
M108.605515,185.011841 
	C106.782463,183.236908 105.303848,181.515564 102.859360,178.669830 
	C107.570213,180.510849 110.912003,181.816833 114.631271,183.212433 
	C119.995827,184.661362 124.982887,186.020645 130.236115,187.452469 
	C122.597961,189.499130 115.538910,189.258331 108.605515,185.011841 
z"/>
<path fill="#7A595D" opacity="1.000000" stroke="none" 
	d="
M127.717148,210.227997 
	C134.100830,210.557831 140.024521,210.871582 145.926697,211.184174 
	C140.260223,215.450851 125.385872,215.325333 116.769554,210.211899 
	C121.043510,210.211899 124.150337,210.211899 127.717148,210.227997 
z"/>
<path fill="#7C5B5E" opacity="1.000000" stroke="none" 
	d="
M67.551491,194.065765 
	C64.891373,190.612015 62.559448,187.239822 60.227520,183.867615 
	C60.631100,183.568909 61.034679,183.270203 61.438259,182.971497 
	C65.322586,186.336853 69.206917,189.702194 73.402489,193.192566 
	C75.337830,194.408127 76.961929,195.498642 78.586037,196.589172 
	C78.078659,197.242905 77.571289,197.896652 77.063911,198.550400 
	C74.002502,197.082703 70.941086,195.615005 67.551491,194.065765 
z"/>
<path fill="#805E61" opacity="1.000000" stroke="none" 
	d="
M169.847214,129.020844 
	C162.969910,130.543610 156.907562,128.864899 151.415543,125.004463 
	C151.564133,124.413849 151.712708,123.823242 151.861282,123.232628 
	C157.643265,124.784409 163.425232,126.336189 169.561447,127.978584 
	C170.006027,128.327988 169.992599,128.581268 169.847214,129.020844 
z"/>
<path fill="#7A595D" opacity="1.000000" stroke="none" 
	d="
M168.375275,196.936188 
	C173.280319,196.951904 177.731567,196.951904 182.544830,196.951904 
	C176.487473,202.023254 168.015640,201.769333 160.014465,195.896790 
	C163.346588,196.328186 165.634033,196.624313 168.375275,196.936188 
z"/>
<path fill="#7B5A5E" opacity="1.000000" stroke="none" 
	d="
M192.287476,164.277176 
	C185.671036,167.270935 180.019775,165.029282 174.678009,161.384201 
	C174.807831,160.783905 174.937668,160.183609 175.067490,159.583313 
	C180.769211,161.035309 186.470917,162.487305 192.287476,164.277176 
z"/>
<path fill="#7E5E61" opacity="1.000000" stroke="none" 
	d="
M200.945129,138.713760 
	C196.904266,139.064346 193.495529,138.518997 190.698822,134.588882 
	C195.512695,133.773727 199.159286,134.032349 200.945129,138.713760 
z"/>
<path fill="#FAE2D7" opacity="1.000000" stroke="none" 
	d="
M37.023796,67.150284 
	C35.343437,68.945755 33.239841,70.644379 31.086727,72.673119 
	C31.037212,73.003227 31.044281,72.951477 31.044281,72.951477 
	C29.853035,73.286072 28.661791,73.620667 27.141392,74.047714 
	C26.339428,71.641396 25.574415,69.345963 24.809404,67.050522 
	C24.472275,67.116798 24.135145,67.183075 23.798016,67.249352 
	C24.359409,70.197479 24.920801,73.145607 25.587626,76.647408 
	C24.655424,77.430626 23.298878,78.570366 20.792820,80.675903 
	C16.378305,74.163406 12.186934,67.980095 7.871785,61.466507 
	C17.365522,63.108635 26.983038,65.081039 37.023796,67.150284 
z"/>
<path fill="#321F21" opacity="1.000000" stroke="none" 
	d="
M10.986282,86.440277 
	C18.031029,87.307442 19.971628,92.049515 15.944366,97.675072 
	C14.512802,99.674782 13.091018,101.681496 11.367758,103.841064 
	C10.974546,98.269447 10.878345,92.541763 10.986282,86.440277 
z"/>
<path fill="#856466" opacity="1.000000" stroke="none" 
	d="
M7.128125,120.639877 
	C9.999256,121.891190 12.862322,123.552795 15.725387,125.214401 
	C15.649906,125.597382 15.574425,125.980362 15.498943,126.363342 
	C12.860303,126.363342 10.221663,126.363342 7.253052,126.175476 
	C6.988741,124.341805 7.054400,122.695992 7.128125,120.639877 
z"/>
<path fill="#7C5A5D" opacity="1.000000" stroke="none" 
	d="
M132.009155,52.029716 
	C144.318176,41.237892 153.987946,28.274923 162.609146,14.436290 
	C158.340881,31.246267 147.362137,43.146023 134.023407,53.671059 
	C134.004913,54.003849 134.035080,53.966866 133.702393,53.907669 
	C132.928650,53.932175 132.487595,54.015873 132.037231,53.839462 
	C132.024521,53.405869 132.021103,53.232384 132.059875,52.783035 
	C132.073334,52.323357 132.044647,52.139542 132.015961,51.955723 
	C132.015961,51.955723 132.032669,52.012108 132.009155,52.029716 
z"/>
<path fill="#7C5B5E" opacity="1.000000" stroke="none" 
	d="
M132.017700,53.058899 
	C132.021103,53.232384 132.024521,53.405869 132.172577,54.120312 
	C132.889832,54.429802 133.462463,54.198334 134.035080,53.966866 
	C134.035080,53.966866 134.004913,54.003849 133.984497,54.016022 
	C146.308273,51.558365 157.096207,45.586601 167.626465,39.044884 
	C169.171066,38.085331 170.645981,37.013607 172.675140,36.079254 
	C173.339264,36.265453 173.481354,36.366188 173.623459,36.466919 
	C163.899582,48.173443 150.882416,53.562756 136.296310,55.984669 
	C134.917633,56.213585 133.595947,56.785770 132.165833,57.583229 
	C131.090561,57.549194 130.097275,57.130524 129.379700,56.277565 
	C129.776855,55.211464 129.898254,54.579651 130.019653,53.947838 
	C130.019669,53.947838 130.022354,54.017952 130.292511,54.007133 
	C130.716553,53.649185 130.870468,53.302055 131.024384,52.954918 
	C131.024368,52.954918 131.014740,53.016075 131.247589,53.079300 
	C131.659531,53.114643 131.838623,53.086769 132.017700,53.058899 
z"/>
<path fill="#7C5B5E" opacity="1.000000" stroke="none" 
	d="
M173.006668,35.985886 
	C173.104279,35.642483 173.392380,35.477913 173.680481,35.313343 
	C173.746445,35.554523 173.812408,35.795704 173.750916,36.251900 
	C173.481354,36.366188 173.339264,36.265453 173.006668,35.985886 
z"/>
<path fill="#2F1C1D" opacity="1.000000" stroke="none" 
	d="
M64.076920,66.770386 
	C64.844887,62.896011 64.586922,58.329208 66.623817,55.311268 
	C69.600639,50.900692 73.507622,51.441204 79.983307,56.115047 
	C80.611862,58.996452 81.589195,61.249371 81.357277,63.370045 
	C80.708649,69.301216 72.549507,74.261749 65.033493,67.356522 
	C64.668495,66.963448 64.386314,66.836647 64.076920,66.770386 
M77.290298,57.037025 
	C75.249214,55.173557 73.201546,55.258640 72.278961,57.865532 
	C71.949196,58.797344 73.535179,60.407150 74.246750,61.707500 
	C75.404305,60.365021 76.561859,59.022541 77.290298,57.037025 
z"/>
<path fill="#EFD6CD" opacity="1.000000" stroke="none" 
	d="
M65.143517,67.562256 
	C72.549507,74.261749 80.708649,69.301216 81.357277,63.370045 
	C81.589195,61.249371 80.611862,58.996452 80.131096,56.448578 
	C81.366081,57.261200 83.408928,58.210789 83.821724,59.633373 
	C86.088272,67.444313 79.850777,74.397118 71.712456,73.422226 
	C69.010918,73.098610 66.323181,72.659737 63.561272,71.797623 
	C64.043442,70.068542 64.593475,68.815399 65.143517,67.562256 
z"/>
<path fill="#F8DFD5" opacity="1.000000" stroke="none" 
	d="
M110.312561,73.711914 
	C111.845619,72.393501 113.080055,71.156731 114.570572,70.511787 
	C116.455772,69.696068 119.337425,68.308975 120.362129,69.075699 
	C121.777550,70.134758 121.860970,72.974022 122.514862,75.050842 
	C122.160088,75.609978 121.805313,76.169121 121.450531,76.728256 
	C117.676247,75.837639 113.901955,74.947014 110.312561,73.711914 
z"/>
<path fill="#805E61" opacity="1.000000" stroke="none" 
	d="
M162.177719,72.989746 
	C162.586121,75.407784 162.818039,77.779640 163.049942,80.151505 
	C159.747238,79.913757 156.444519,79.675995 153.141815,79.438240 
	C153.088684,78.782761 153.035553,78.127281 152.982422,77.471794 
	C155.030426,76.367157 157.078430,75.262520 159.233505,73.754913 
	C160.227463,73.215813 161.114349,73.079697 162.177719,72.989746 
z"/>
<path fill="#EED5CC" opacity="1.000000" stroke="none" 
	d="
M89.034546,70.018311 
	C91.719330,64.219604 93.327881,58.375237 88.674683,51.610176 
	C96.939789,56.833984 96.879166,64.840027 89.319092,70.073792 
	C88.987679,69.984062 89.034546,70.018311 89.034546,70.018311 
z"/>
<path fill="#EFD6CD" opacity="1.000000" stroke="none" 
	d="
M31.011581,73.002838 
	C33.018261,72.671722 35.050575,72.340988 37.936203,71.871399 
	C33.374180,76.059570 29.376978,79.729202 25.379776,83.398842 
	C24.973824,83.085289 24.567869,82.771736 24.161917,82.458183 
	C26.516226,79.527618 28.870533,76.597046 31.134560,73.308975 
	C31.044281,72.951477 31.037212,73.003227 31.011581,73.002838 
z"/>
<path fill="#E6CCC4" opacity="1.000000" stroke="none" 
	d="
M34.723316,89.867569 
	C30.755251,90.902809 27.178198,91.891144 23.670380,92.860344 
	C26.007103,88.236221 30.032471,87.005997 38.984619,88.757156 
	C37.122898,89.268730 36.118614,89.544693 34.723316,89.867569 
z"/>
<path fill="#F3DAD1" opacity="1.000000" stroke="none" 
	d="
M114.784386,62.952644 
	C113.852531,61.081390 112.974403,59.082466 112.948174,57.072430 
	C112.942207,56.615044 115.884819,56.119190 117.470284,55.641045 
	C117.809502,56.037102 118.148727,56.433163 118.487953,56.829224 
	C117.374275,58.826466 116.260597,60.823704 114.784386,62.952644 
z"/>
<path fill="#EAD1C8" opacity="1.000000" stroke="none" 
	d="
M65.033493,67.356522 
	C64.593475,68.815399 64.043442,70.068542 63.269398,71.599533 
	C58.679192,69.760780 58.491135,66.095398 59.332787,61.546288 
	C60.365482,64.205025 61.233521,66.439835 62.212433,68.960098 
	C62.776817,68.102211 63.122356,67.576973 63.772408,66.911057 
	C64.386314,66.836647 64.668495,66.963448 65.033493,67.356522 
z"/>
<path fill="#FCE4D9" opacity="1.000000" stroke="none" 
	d="
M129.670654,53.977455 
	C129.898254,54.579651 129.776855,55.211464 129.326248,55.925987 
	C129.105255,55.341484 129.213455,54.674278 129.670654,53.977455 
z"/>
<path fill="#FCE4D9" opacity="1.000000" stroke="none" 
	d="
M132.059875,52.783035 
	C131.838623,53.086769 131.659531,53.114643 131.216797,53.076122 
	C131.060104,52.556046 131.167053,52.102364 131.644989,51.802200 
	C132.044647,52.139542 132.073334,52.323357 132.059875,52.783035 
z"/>
<path fill="#EED5CC" opacity="1.000000" stroke="none" 
	d="
M88.966064,69.964691 
	C88.861389,70.017212 88.778328,70.089111 88.864899,70.089661 
	C89.034546,70.018311 88.987679,69.984062 88.966064,69.964691 
z"/>
<path fill="#FCE4D9" opacity="1.000000" stroke="none" 
	d="
M130.672180,52.847588 
	C130.870468,53.302055 130.716553,53.649185 130.257904,54.012962 
	C130.075439,53.599827 130.197723,53.170040 130.672180,52.847588 
z"/>
<path fill="#2F1C1D" opacity="1.000000" stroke="none" 
	d="
M47.054054,97.817802 
	C50.195309,97.597534 51.329826,98.830872 50.978325,102.140427 
	C49.725933,113.932426 37.996105,122.565224 28.133343,118.010040 
	C28.243954,114.908310 29.408012,111.349236 28.301046,110.377663 
	C25.187410,107.644859 27.474808,106.302307 28.941677,104.793457 
	C33.879047,99.714867 40.421429,98.605530 47.054054,97.817802 
z"/>
<path fill="#CEBFB9" opacity="1.000000" stroke="none" 
	d="
M37.738499,125.221542 
	C45.757877,124.153450 50.496357,119.505753 53.550053,112.732887 
	C56.745346,117.826111 57.078381,125.438705 54.254269,128.274002 
	C51.215984,131.324356 42.525021,130.446213 35.614750,126.315247 
	C36.260609,125.959099 36.828308,125.646049 37.738499,125.221542 
z"/>
<path fill="#CBBCB7" opacity="1.000000" stroke="none" 
	d="
M46.977264,97.457901 
	C40.421429,98.605530 33.879047,99.714867 28.941677,104.793457 
	C27.474808,106.302307 25.187410,107.644859 28.301046,110.377663 
	C29.408012,111.349236 28.243954,114.908310 27.966898,117.670471 
	C25.756935,116.048340 23.696672,114.041962 21.280743,112.047318 
	C20.925076,112.059052 20.996805,112.013374 20.969019,112.047592 
	C23.430681,99.230812 36.834141,91.494270 46.977264,97.457901 
z"/>
<path fill="#79575B" opacity="1.000000" stroke="none" 
	d="
M83.529434,91.024033 
	C85.739563,91.460518 87.512619,91.861618 88.721779,92.135155 
	C80.164261,95.258629 71.203354,98.529343 62.676003,101.641808 
	C62.909458,96.824348 68.085747,91.580696 74.641991,90.973488 
	C77.434364,90.714859 80.274132,90.968048 83.529434,91.024033 
z"/>
<path fill="#7E5C5F" opacity="1.000000" stroke="none" 
	d="
M127.983551,146.030273 
	C135.321182,150.437607 143.162354,152.971893 152.553238,151.948792 
	C142.101273,159.033722 132.298340,156.666229 127.865852,146.298187 
	C128.019073,145.979767 127.983551,146.030273 127.983551,146.030273 
z"/>
<path fill="#805F62" opacity="1.000000" stroke="none" 
	d="
M88.929901,156.910156 
	C81.817841,156.018936 76.432274,153.377884 74.049141,146.286255 
	C80.398254,149.896423 86.459129,153.342697 92.749664,156.919556 
	C91.654251,156.919556 90.487984,156.919556 88.929901,156.910156 
z"/>
<path fill="#856466" opacity="1.000000" stroke="none" 
	d="
M94.074387,121.362099 
	C97.841492,122.963242 101.279427,124.450485 104.717354,125.937721 
	C104.435471,126.598686 104.153580,127.259651 103.871689,127.920616 
	C99.684280,126.156395 95.496872,124.392174 91.309464,122.627953 
	C91.481003,122.168037 91.652542,121.708115 91.824081,121.248192 
	C92.464462,121.248192 93.104836,121.248192 94.074387,121.362099 
z"/>
<path fill="#7A595C" opacity="1.000000" stroke="none" 
	d="
M108.963898,114.168022 
	C107.912254,113.633965 107.215103,113.249886 106.517960,112.865814 
	C106.654922,112.407104 106.791885,111.948387 106.928848,111.489670 
	C110.788734,112.495865 114.648613,113.502052 118.508492,114.508240 
	C118.352737,115.149582 118.196976,115.790924 118.041214,116.432266 
	C115.133606,115.727516 112.226006,115.022758 108.963898,114.168022 
z"/>
<path fill="#7E5C5F" opacity="1.000000" stroke="none" 
	d="
M128.037018,145.954636 
	C127.838921,145.906006 127.622871,145.882507 127.406815,145.859009 
	C127.544746,145.797440 127.682678,145.735870 127.902084,145.852295 
	C127.983551,146.030273 128.019073,145.979767 128.037018,145.954636 
z"/>
<path fill="#FCE4D9" opacity="1.000000" stroke="none" 
	d="
M133.702393,53.907669 
	C133.462463,54.198334 132.889832,54.429802 132.181870,54.380424 
	C132.487595,54.015873 132.928650,53.932175 133.702393,53.907669 
z"/>
<path fill="#EBEAEA" opacity="1.000000" stroke="none" 
	d="
M77.504852,57.358543 
	C76.561859,59.022541 75.404305,60.365021 74.246750,61.707497 
	C73.535179,60.407150 71.949196,58.797344 72.278961,57.865532 
	C73.201546,55.258640 75.249214,55.173557 77.504852,57.358543 
z"/>
</svg>