    <svg
      enable-background="new 0 0 917 240"
      version="1.1"
      viewBox="0 0 40 40"
      xmlSpace="preserve"
      xmlnsXlink="http://www.w3.org/2000/svg"
      aria-hidden="true"
    >
      <path
        d="m918 217v23.994c-259.02 0.006409-518.05 0.006409-777.51-0.37187 0.086456-6.4531 4.5819-8.5101 9.4112-10.588 20.337-8.7513 35.796-23.075 46.968-42.061 1.4749-2.5063 2.6857-4.3422 5.9849-4.0319 3.6979 0.34779 5.0193-1.4352 3.2409-4.8631-2.2513-4.3395-1.2754-8.4479 0.15256-12.814 4.8194-14.734 5.8962-29.914 3.3823-45.123-1.0941-6.619-3.165-12.829 1.988-18.575 0.16093-0.17948 0.020385-0.62931 0.020385-1.4907-6.5922-0.66201-9.7195-5.2226-12.331-10.977-2.1394-4.7148-5.5751-8.8414-8.3956-13.579-5.3076-6.4469-10.656-12.543-15.897-18.518 0.082596-0.18462 0.48111-1.0755 1.2897-1.9861 1.1663-0.68983 2.5856-1.3675 2.578-2.0288-0.09378-8.1838 0.65781-16.57-0.88605-24.5-2.4247-12.454-10.946-21.228-21.001-28.487h761c0 70.69 0 141.38-0.35059 212.4-1.4145-0.55786-2.3413-1.8029-3.5656-2.2724-5.8792-2.2546-12.04-3.8642-17.732-6.5003-17.505-8.1071-29.758-22.662-42.994-35.953-1.7283-1.7356-2.7982-4.127-4.23-6.3013 3.5771-1.4047 6.813-2.4945 9.8952-3.9173 12.636-5.8331 24.711-12.712 34.962-22.168 5.5269-5.0983 11.06-10.726 14.736-17.173 6.0126-10.546 5.8146-22.318 4.5875-34.37-1.0885-10.691-6.3594-18.479-13.529-25.223-8.1926-7.7057-19.094-9.5559-29.748-10.376-17.846-1.3743-35.416 0.75054-52.163 7.4909-7.6185 3.0664-15.034 6.6382-22.739 10.069 0.52362-6.94-4.645-9.7588-9.7748-11.592-19.587-7.0002-39.79-6.755-60.128-4.249-5.2238 0.64365-10.625 1.6032-15.75 0.93028-11.206-1.4716-22.254-3.4858-33.674-1.8844-10.058 1.4103-20.214 2.139-30.339 3.0349-3.8612 0.34165-7.8082 0.78461-11.625 0.35971-10.858-1.2089-21.634-3.551-32.509-4.0831-8.8044-0.43079-17.807 0.49375-26.543 1.9132-19.014 3.0893-38.28 5.2588-55.228 12.39-1.9647-2.1546-3.1608-4.3919-5.0142-5.3281-5.9201-2.9902-11.923-5.9862-18.198-8.0568-6.5564-2.1633-9.4281-0.64377-12.281 5.8845-4.7974 10.977-9.3522 22.067-13.723 33.222-9.2263 23.548-17.925 47.309-27.541 70.695-4.3038 10.466-7.9309 21.393-14.748 30.699-2.7903 3.8095-5.5387 7.6662-8.5853 11.265-1.7208 2.0328-3.7246 1.52-4.3639-1.0924-0.65534-2.678-1.0792-5.4943-1.0509-8.2445 0.16736-16.306 4.7978-31.862 8.5566-47.518 1.6782-6.9901 5.1945-13.519 7.2744-20.438 2.1672-7.21 5.5714-13.954 6.8411-21.561 0.85544-5.1255 4.5629-9.7108 6.0546-14.813 1.4574-4.9846 3.1599-10.607 2.188-15.433-1.6377-8.1318-8.4845-13.094-15.547-16.667-6.0553-3.0637-10.163-1.2678-13.75 4.6522-1.3822 2.2812-2.3815 4.7926-3.5883 7.1825-3.972 7.8661-8.0107 15.699-11.921 23.595-2.3491 4.7436-4.5073 9.5816-7.1626 15.256-1.132-9.0377-1.6053-16.588-3.0997-23.931-2.7751-13.635-11.264-23.427-23.742-28.658-14.818-6.2116-30.615-6.5408-46.479-4.3022-18.685 2.6366-35.959 8.3137-50.878 20.555-12.107 9.9345-14.603 20.836-6.6784 33.49 2.6445 4.2228 5.1424 9.3225 11.259 10.049 5.1118-8.3287 12.101-14.238 20.61-18.586 8.8557-4.5253 18.244-6.421 28.053-7.6818 12.703-1.6326 24.931-0.66087 36.849 3.7188 6.3474 2.3327 8.0676 7.244 4.6992 13.206-1.9057 3.3731-4.2456 6.8216-7.2159 9.2082-6.9736 5.6033-14.206 10.971-21.795 15.692-5.2442 3.2622-11.26 5.2847-17.805 8.2586 1.5981-3.7977 2.5991-6.3642 3.7506-8.8613 1.2287-2.6646 2.5929-5.2671 3.9097-7.8908 4.2386-8.4456 3.772-11.06-3.3673-17.493-1.8201-1.6402-3.6938-3.348-5.829-4.4897-9.7823-5.2307-12.316-4.9483-18.153 4.2933-5.9019 9.3448-11.678 19.017-15.67 29.263-6.2227 15.97-11.438 32.393-16.049 48.913-3.7421 13.407-5.8146 27.309-3.204 41.276 0.64276 3.4387 2.524 7.4717 5.1642 9.5156 3.8561 2.9851 8.7502 4.9584 13.495 6.3891 7.27 2.1919 11.659-1.6932 12.222-9.64 0.34595-4.8811 0.94458-9.7644 1.7779-14.587 1.5966-9.2394 3.0536-18.533 5.326-27.614 1.4049-5.6147 1.1071-12.912 9.4427-14.278 2.0641-0.33839 4.1059-1.1338 6.0177-2.0211 6.0291-2.7985 11.853-6.0849 18.008-8.5584 15.011-6.0332 28.704-14.159 40.184-25.543 6.0146-5.9642 11.1-12.866 15.77-18.362-1.7331 5.9549-3.9704 13.362-6.0423 20.815-5.4914 19.754-8.6089 39.752-5.4937 60.278 0.93308 6.1482 2.5846 12.008 7.299 16.655 9.4091 9.2747 21.036 14.268 33.597 16.924 6.58 1.3912 13.548 1.5689 20.308 1.3369 9.1163-0.3129 13.302-8.3772 18.559-14.005 11.163-11.95 18.183-26.766 23.8-41.803 9.5743-25.632 17.671-51.815 26.475-77.737 0.33698-0.99216 1.476-2.2443 2.4142-2.4128 5.7801-1.0382 11.669-1.52 17.407-2.7308 5.9115-1.2476 11.692-3.1158 18.246-4.9083-3.1035 6.3144-6.6343 11.487-8.2437 17.201-3.1119 11.05-9.6612 16.815-20.902 19.55-11.49 2.7959-17.379 15.691-14.227 26.253 1.3014 4.3607 3.4863 5.0948 7.2995 3.9123 3.1189-0.96726 6.2796-1.8001 9.5677-2.734-2.6787 9.2553-5.5733 17.728-7.5371 26.412-2.7241 12.045-4.892 24.224-7.0259 36.393-1.5599 8.8962 0.60382 13.151 9.0649 16.904 4.8318 2.1431 10.119 3.316 15.269 4.6712 6.025 1.5856 9.0153 0.098831 10.503-5.9382 1.2414-5.0355 1.3032-10.349 2.2524-15.472 2.1595-11.656 4.0817-23.386 6.9699-34.867 2.7208-10.816 6.4853-21.376 9.9966-31.98 0.40204-1.2142 2.0088-2.6288 3.2605-2.8631 6.9836-1.3075 14.03-2.28 21.612-3.4533 0 2.795-0.004883 4.7537 9.16e-4 6.7124 0.018859 6.3721 2.1766 7.9466 8.261 6.0566 2.7122-0.84248 5.4353-1.6498 8.5342-2.5884-0.71698 2.6643-1.1708 4.6756-1.798 6.6314-6.2715 19.556-11.238 39.414-12.821 59.942-0.28387 3.6823 0.017151 8.4654 4.2082 10.3 7.2098 3.1562 14.589 6.1221 22.171 8.1403 3.2991 0.87825 7.2378-1.1302 8.3696-5.2298 0.98901-3.5825 1.5258-7.3061 2.0491-10.998 1.1928-8.4133 1.4705-17.043 3.5389-25.227 3.8862-15.376 8.9331-30.454 13.145-45.753 1.1317-4.1109 3.4395-5.3166 7.1917-5.5846 4.6384-0.33134 9.256-0.95274 14.149-1.4774 0 1.5302-0.004639 2.8495 7.93e-4 4.1688 0.034058 8.3131 1.9906 9.7818 9.6971 7.3353 2.3088-0.73292 4.6463-1.3753 7.0892-2.094-4.4075 13.516-8.7572 26.235-12.677 39.086-2.7387 8.9788-3.0682 17.983 2.5631 26.225 5.2352 7.6626 9.8513 16.811 19.918 18.311 8.6054 1.2816 17.712 1.0658 26.358-0.16498 20.422-2.9072 37.035-14.286 53.202-26.161 2.5817-1.8964 4.7691-4.6441 6.4153-7.4263 2.5092-4.2405 1.9474-8.9007-1.6939-12.057-1.6933-1.4676-5.3412-1.839-7.6956-1.2018-19.224 5.2031-38.339 10.807-57.524 16.155-2.3434 0.65321-4.7408 0.17044-4.6498-3.1746 0.086609-3.1821-0.32581-6.5735 0.62317-9.5029 4.4889-13.856 9.5717-27.521 13.983-41.401 1.2732-4.0063 3.2506-6.222 7.2316-6.5488 9.1802-0.75352 18.364-1.5248 27.562-1.9641 4.5034-0.21509 8.3094-1.7994 10.254-5.6149 2.0262-3.9759 3.6149-8.4295 4.1962-12.833 1.1313-8.5681-2.3882-14.51-12.398-13.72-6.6149 0.52213-13.304 0.098862-19.834 0.098862 3.3958-7.9158 6.2849-16.482 2.8363-25.192h38.958c1.8134 6.6771 2.6962 12.535 5.0187 17.752 2.3615 5.3042 5.2744 10.842 11.754 12.641 8.961-15.528 22.669-25.018 41.058-28.286 8.8024-1.5645 17.442-2.9778 26.627-2.3316 6.3787 0.44871 12.421 1.2065 18.198 3.5069 10.282 4.0945 9.6735 12.741 3.358 18.887-3.9892 3.8816-8.3111 7.4769-12.787 10.791-9.5211 7.0493-20.24 11.826-31.77 16.611 0.25726-2.0419 0.11774-3.2868 0.58197-4.2366 2.9918-6.1199 5.8516-12.33 9.2891-18.197 2.2668-3.869 1.8183-7.4844-1.2251-9.6669-4.9587-3.5559-10.446-6.5762-16.085-8.9205-4.9229-2.0464-10.062 0.070664-12.333 4.4313-5.1581 9.9042-11.239 19.545-14.799 30.022-9.6445 28.383-18.149 57.153-27.162 85.752-1.4589 4.6293-0.35632 8.4938 3.797 10.697 4.3969 2.3324 9.079 4.5144 13.898 5.5718 6.8815 1.51 10.677-0.38794 12.872-5.2788 1.3306-2.9646 2.3864-6.0852 3.242-9.2239 2.4297-8.9129 4.6561-17.881 7.0341-26.808 1.8884-7.0891 3.8823-14.15 6.165-22.443 2.0967 3.9556 3.6071 6.6289 4.9573 9.3807 10.254 20.899 24.439 38.415 44.548 50.517 6.9442 4.1794 14.611 6.571 23.116 5.1652 10.771-1.7803 17.31-8.9657 23.234-17.142z"
        fill="#fff"
      />
      <path
        d="m918 216.62c-5.9237 8.5511-12.463 15.736-23.234 17.517-8.5046 1.4058-16.171-0.98578-23.116-5.1652-20.109-12.103-34.294-29.619-44.548-50.517-1.3502-2.7518-2.8606-5.425-4.9573-9.3807-2.2827 8.293-4.2766 15.354-6.165 22.443-2.378 8.9273-4.6043 17.895-7.0341 26.808-0.85565 3.1387-1.9114 6.2594-3.242 9.2239-2.1951 4.8909-5.9902 6.7889-12.872 5.2788-4.8187-1.0574-9.5009-3.2394-13.898-5.5718-4.1533-2.2032-5.2559-6.0677-3.797-10.697 9.0124-28.599 17.517-57.369 27.162-85.752 3.5601-10.477 9.6414-20.118 14.799-30.022 2.271-4.3607 7.4104-6.4778 12.333-4.4313 5.6393 2.3443 11.127 5.3646 16.085 8.9205 3.0434 2.1825 3.4919 5.7979 1.2251 9.6669-3.4375 5.8673-6.2974 12.077-9.2891 18.197-0.46423 0.9498-0.32471 2.1948-0.58197 4.2366 11.53-4.785 22.249-9.562 31.77-16.611 4.4761-3.314 8.798-6.9092 12.787-10.791 6.3155-6.1453 6.9241-14.792-3.358-18.887-5.7769-2.3004-11.819-3.0582-18.198-3.5069-9.1855-0.64617-17.825 0.76711-26.627 2.3316-18.389 3.2684-32.097 12.758-41.058 28.286-6.4793-1.7994-9.3922-7.3367-11.754-12.641-2.3226-5.2169-3.2053-11.075-5.0187-17.752h-38.958c3.4485 8.7102 0.55951 17.276-2.8363 25.192 6.5297 0 13.219 0.42327 19.834-0.098862 10.01-0.79011 13.529 5.1519 12.398 13.72-0.58136 4.403-2.17 8.8567-4.1962 12.833-1.9444 3.8155-5.7505 5.3998-10.254 5.6149-9.1981 0.4393-18.382 1.2106-27.562 1.9641-3.981 0.32677-5.9584 2.5425-7.2316 6.5488-4.4111 13.879-9.4938 27.545-13.983 41.401-0.94898 2.9294-0.53656 6.3209-0.62317 9.5029-0.091065 3.345 2.3063 3.8278 4.6498 3.1746 19.185-5.3476 38.3-10.951 57.524-16.155 2.3544-0.63724 6.0023-0.26578 7.6956 1.2018 3.6414 3.1559 4.2031 7.8161 1.6939 12.057-1.6462 2.7822-3.8336 5.53-6.4153 7.4263-16.167 11.875-32.779 23.254-53.202 26.161-8.6461 1.2308-17.752 1.4466-26.358 0.16498-10.067-1.4993-14.683-10.648-19.918-18.311-5.6313-8.2424-5.3018-17.247-2.5631-26.225 3.9197-12.851 8.2693-25.57 12.677-39.086-2.4429 0.71872-4.7804 1.3611-7.0892 2.094-7.7065 2.4465-9.6631 0.97775-9.6971-7.3353-0.005432-1.3193-7.93e-4 -2.6386-7.93e-4 -4.1688-4.8934 0.52467-9.511 1.1461-14.149 1.4774-3.7523 0.26802-6.0601 1.4737-7.1917 5.5846-4.2114 15.299-9.2584 30.378-13.145 45.753-2.0684 8.1834-2.3461 16.813-3.5389 25.227-0.52338 3.6915-1.0601 7.4151-2.0491 10.998-1.1318 4.0997-5.0705 6.1081-8.3696 5.2298-7.5817-2.0182-14.961-4.9841-22.171-8.1403-4.191-1.8347-4.4921-6.6179-4.2082-10.3 1.5823-20.528 6.5491-40.386 12.821-59.942 0.6272-1.9558 1.081-3.9671 1.798-6.6314-3.0989 0.93861-5.822 1.7459-8.5342 2.5884-6.0844 1.89-8.2422 0.31551-8.261-6.0566-0.005799-1.9587-9.16e-4 -3.9174-9.16e-4 -6.7124-7.5825 1.1733-14.629 2.1459-21.612 3.4533-1.2517 0.23434-2.8585 1.6489-3.2605 2.8631-3.5113 10.604-7.2758 21.163-9.9966 31.98-2.8882 11.481-4.8104 23.212-6.9699 34.867-0.94916 5.1228-1.011 10.436-2.2524 15.472-1.4882 6.037-4.4785 7.5238-10.503 5.9382-5.1493-1.3552-10.437-2.5281-15.269-4.6712-8.4611-3.7527-10.625-8.0074-9.0649-16.904 2.1339-12.169 4.3018-24.348 7.0259-36.393 1.9638-8.6835 4.8584-17.157 7.5371-26.412-3.2881 0.9339-6.4487 1.7668-9.5677 2.734-3.8132 1.1826-5.9981 0.44842-7.2995-3.9123-3.1521-10.562 2.7374-23.457 14.227-26.253 11.241-2.7354 17.791-8.5007 20.902-19.55 1.6093-5.7141 5.1402-10.887 8.2437-17.201-6.554 1.7925-12.335 3.6608-18.246 4.9083-5.7379 1.2109-11.627 1.6926-17.407 2.7308-0.9382 0.16853-2.0773 1.4207-2.4142 2.4128-8.8044 25.922-16.901 52.105-26.475 77.737-5.6168 15.037-12.637 29.853-23.8 41.803-5.257 5.6279-9.4427 13.692-18.559 14.005-6.7598 0.23201-13.728 0.054367-20.308-1.3369-12.561-2.6559-24.188-7.6495-33.597-16.924-4.7144-4.6471-6.3659-10.506-7.299-16.655-3.1152-20.527 0.002289-40.524 5.4937-60.278 2.0719-7.4531 4.3092-14.86 6.0423-20.815-4.6703 5.4961-9.7555 12.398-15.77 18.362-11.48 11.384-25.173 19.51-40.184 25.543-6.1543 2.4735-11.978 5.7599-18.008 8.5584-1.9118 0.88738-3.9536 1.6827-6.0177 2.0211-8.3357 1.3665-8.0378 8.6635-9.4427 14.278-2.2724 9.0815-3.7293 18.375-5.326 27.614-0.83328 4.8221-1.4319 9.7054-1.7779 14.587-0.56317 7.9469-4.9517 11.832-12.222 9.64-4.7453-1.4307-9.6394-3.404-13.495-6.3891-2.6402-2.0439-4.5214-6.0769-5.1642-9.5156-2.6107-13.967-0.53809-27.869 3.204-41.276 4.6106-16.519 9.8261-32.942 16.049-48.913 3.992-10.246 9.7682-19.918 15.67-29.263 5.8366-9.2416 8.3707-9.524 18.153-4.2933 2.1352 1.1417 4.0089 2.8495 5.829 4.4897 7.1394 6.4334 7.606 9.0479 3.3673 17.493-1.3168 2.6237-2.681 5.2261-3.9097 7.8908-1.1515 2.4971-2.1524 5.0636-3.7506 8.8613 6.5455-2.9739 12.561-4.9965 17.805-8.2586 7.5893-4.7209 14.821-10.089 21.795-15.692 2.9703-2.3866 5.3102-5.8351 7.2159-9.2082 3.3684-5.9623 1.6481-10.874-4.6992-13.206-11.917-4.3797-24.146-5.3514-36.849-3.7188-9.8092 1.2607-19.198 3.1565-28.053 7.6818-8.5088 4.348-15.498 10.258-20.61 18.586-6.1165-0.72663-8.6144-5.8264-11.259-10.049-7.9244-12.654-5.4284-23.555 6.6784-33.49 14.918-12.241 32.193-17.918 50.878-20.555 15.864-2.2386 31.662-1.9094 46.479 4.3022 12.478 5.2309 20.967 15.023 23.742 28.658 1.4944 7.3428 1.9677 14.893 3.0997 23.931 2.6552-5.6744 4.8134-10.512 7.1626-15.256 3.9105-7.8964 7.9491-15.729 11.921-23.595 1.2068-2.3899 2.2061-4.9012 3.5883-7.1825 3.587-5.9199 7.6952-7.7159 13.75-4.6522 7.0621 3.5731 13.909 8.5348 15.547 16.667 0.97189 4.8258-0.73062 10.449-2.188 15.433-1.4917 5.1018-5.1992 9.687-6.0546 14.813-1.2697 7.6072-4.674 14.351-6.8411 21.561-2.0798 6.9192-5.5962 13.448-7.2744 20.438-3.7588 15.656-8.3893 31.213-8.5566 47.518-0.028259 2.7501 0.39557 5.5665 1.0509 8.2445 0.63928 2.6124 2.6431 3.1252 4.3639 1.0924 3.0466-3.5989 5.795-7.4556 8.5853-11.265 6.8169-9.3068 10.444-20.233 14.748-30.699 9.6162-23.385 18.314-47.147 27.541-70.695 4.3706-11.155 8.9254-22.245 13.723-33.222 2.8531-6.5282 5.7249-8.0477 12.281-5.8845 6.2755 2.0706 12.278 5.0666 18.198 8.0568 1.8534 0.93614 3.0495 3.1735 5.0142 5.3281 16.948-7.1314 36.214-9.3009 55.228-12.39 8.7364-1.4194 17.739-2.344 26.543-1.9132 10.875 0.5321 21.651 2.8742 32.509 4.0831 3.8164 0.4249 7.7634-0.018055 11.625-0.35971 10.125-0.89587 20.281-1.6246 30.339-3.0349 11.42-1.6014 22.468 0.41284 33.674 1.8844 5.1246 0.67296 10.526-0.28662 15.75-0.93028 20.338-2.506 40.542-2.7513 60.128 4.249 5.1298 1.8334 10.298 4.6521 9.7748 11.592 7.7055-3.4308 15.121-7.0026 22.739-10.069 16.746-6.7404 34.317-8.8652 52.163-7.4909 10.654 0.82042 21.555 2.6706 29.748 10.376 7.1697 6.7437 12.441 14.531 13.529 25.223 1.2272 12.053 1.4251 23.824-4.5875 34.37-3.6753 6.4466-9.2089 12.075-14.736 17.173-10.252 9.4568-22.326 16.335-34.962 22.168-3.0822 1.4228-6.3181 2.5126-9.8952 3.9173 1.4319 2.1742 2.5017 4.5656 4.23 6.3013 13.236 13.291 25.489 27.846 42.994 35.953 5.6918 2.636 11.853 4.2457 17.732 6.5003 1.2243 0.4695 2.1511 1.7146 3.5656 2.7363 0.35059 0.88408 0.35059 1.6341 0.35059 2.7591m-292.48-121.65c0.50024-1.1498 1.0004-2.2996 1.6168-3.7164-1.0042-0.085816-1.6909-0.32215-2.274-0.16751-7.9695 2.1138-15.866 4.5513-23.911 6.3108-3.4973 0.76485-7.8553 3.4298-10.786-0.50435-2.147-2.882-3.007-6.7228-4.3798-9.9916h-11.56c6.431 9.5379-0.54919 17.936-1.0931 26.976 3.4267-0.3084 6.6235-0.71289 9.8318-0.85255 3.3206-0.14455 6.6523-0.032181 9.9791-0.03215 9.703 8.4e-5 11.787 1.6603 13.677 11.05 3.9847-0.86315 7.0198-2.4786 8.7111-6.6931 2.9568-7.3682 6.4611-14.517 10.187-22.379m31.462-5.0645c-0.45868 7.9427-0.91736 15.885-1.3855 23.992 2.1021-0.22302 5.3112-0.7013 8.5365-0.86748 3.321-0.1711 6.6605 0.053581 9.9868-0.05481 10.905-0.35533 13.659 2.7198 13.035 12.209-0.013489 0.20474 0.36804 0.43546 1.539 1.733 5.9886-12.106 11.723-23.699 17.644-35.668-1.2294-0.093483-1.9126-0.31676-2.4981-0.16437-9.2452 2.4063-18.474 4.8777-27.715 7.2974-4.5208 1.1836-8.5333-1.5139-9.0866-6.1614-0.18945-1.5908-0.030151-3.2231-0.030151-4.9408h-11.93c0.76093 0.90826 1.1683 1.3945 1.9047 2.625m-330.12-9.8443c-1.2609 0.30991-2.5544 0.98265-3.7776 0.87288-10.682-0.9586-18.453 6.7352-27.961 9.2509 6.2068-1.196 12.05-3.7374 18.158-5.0053 6.5283-1.3552 13.293-1.76 19.979-2.1152 6.341-0.33683 12.714-0.072433 19.073-0.072433 0.044556-0.30031 0.089112-0.60062 0.13367-0.90092-8.2232-0.69657-16.447-1.3932-25.605-2.0299m523.39 0.92072c-4.8208 0.68308-9.7366 0.98556-14.435 2.1584-4.5151 1.1271-8.8053 3.1555-13.194 4.7878 17.026-4.0416 34.201-6.8807 51.85-4.251-7.6165-2.5395-15.178-5.1092-24.221-2.6953m-500.39-24.616c-12.772-3.5448-25.324-2.5983-38.063 1.62h40.521c0.008728-0.28532 0.017456-0.57063 0.026184-0.85595-0.62118-0.08199-1.2423-0.16398-2.4848-0.76406m518.42 0.62577c2.989 0.308 5.978 0.61599 8.967 0.92398-12.247-4.8488-26.718-4.5807-37.375-0.92398h28.408m-5.0178 95.953c0.47797-0.4189 0.95587-0.83778 1.6898-1.481-0.74365-0.22133-1.1953-0.52795-1.518-0.42604-5.2272 1.6509-10.452 3.3127-15.626 5.1201-0.42657 0.14902-0.48028 1.3653-0.70721 2.0857 0.72632 0.21631 1.6091 0.813 2.1543 0.58885 4.458-1.8326 8.853-3.8184 14.007-5.8876m-136.3 55.585c-2.8282 0.64456-5.6564 1.2891-8.4847 1.9337 0.10571 0.42371 0.21136 0.8474 0.31708 1.2711 8.946-2.3332 17.892-4.6664 26.838-6.9995-0.08374-0.37419-0.16754-0.7484-0.25128-1.1226-5.9055 1.4863-11.811 2.9725-18.419 4.9173m126.77-135.54h15.73c-0.001281-0.38741-0.002624-0.77483-0.003967-1.1622h-20.898c-0.001892 0.38741-0.003845 0.77483-0.005737 1.1622h5.1774m-139.73 140c0.49274-0.21387 0.98547-0.42773 1.4782-0.64159-0.46875-0.29474-0.97681-0.89088-1.3998-0.83568-2.8967 0.37819-5.7877 0.82991-8.6561 1.3842-2.1957 0.42433-4.3557 1.0339-6.5315 1.5611 0.13483 0.52457 0.26965 1.0491 0.40448 1.5737 4.6415-1.0076 9.2831-2.0152 14.705-3.0417m-374.67-140h6.0198c-0.007538-0.39221-0.015075-0.78442-0.022613-1.1766h-20.692c-7.02e-4 0.39221-0.001374 0.78442-0.002076 1.1766h14.697z"
        fill="#704D52"
      />
      <path
        d="m190.88 76.869c2.8611 4.3873 6.2967 8.5139 8.4361 13.229 2.6112 5.7545 5.7385 10.315 12.331 10.977 0 0.86143 0.14055 1.3113-0.020385 1.4907-5.1529 5.7463-3.0821 11.956-1.988 18.575 2.5139 15.208 1.4371 30.389-3.3823 45.123-1.428 4.3656-2.4038 8.4741-0.15256 12.814 1.7784 3.4279 0.45702 5.2109-3.2409 4.8631-3.2993-0.31029-4.5101 1.5256-5.9849 4.0319-11.172 18.986-26.632 33.31-46.968 42.061-4.8293 2.0782-9.3248 4.1352-9.8751 10.588-1.0967 0.37828-2.1634 0.37828-3.7723 0.052048-3.1594-1.4438-5.6953-3.1282-8.4168-3.5183-2.6762-0.38353-5.5516 0.47624-8.3206 0.91159-16.822 2.6449-32.763-0.89394-48.711-6.0209-9.6416-3.0996-16.702-12.943-27.995-10.15-0.76879-3.2068-0.51157-6.9116-2.1849-8.3156-8.9068-7.4735-15.444-16.72-21.107-26.471 8.5753 1.603 16.775 3.2366 25.247 5.0105 4.3741 4.4027 8.6425 8.4077 15.136 9.1608-2.5852-2.4545-5.1705-4.909-7.2979-7.3705 5.1769 0.019928 9.896 0.046845 14.943 0.1553 3.3896 1.5492 6.451 3.0169 9.5124 4.4846 0.50738-0.65375 1.0147-1.3075 1.5221-1.9612-1.6241-1.0905-3.2482-2.181-4.4621-3.4081 11.653-2.832 22.895-5.5274 34.482-8.1692 6.9334 4.2465 13.992 4.4873 21.631 2.4406-5.2532-1.4318-10.24-2.7911-15.151-4.5053 5.7908-3.5702 11.506-6.7856 17.579-9.9814 12.383 4.8716 24.687 5.0604 35.888 3.012-10.086-1.4624-21.315-3.0907-32.46-5.061 1.0545-1.2195 2.0562-2.0642 2.9887-2.9796 7.4071-7.2709 15.339-14.102 21.996-22.006 3.955-4.696 5.8956-11.088 8.77-16.91 0.14538-0.43958 0.15881-0.69286 0.43773-1.01 5.3445-4.5091 8.7046-19.538 5.2464-23.714 5.2119-1.4162 3.8659-4.8439 2.5515-8.6466 0.023102-1.164 0.066635-1.9394 0.37347-3.0053 0.42586-2.1601 0.58838-4.0296 1.1037-5.7828 1.2448 0.55045 2.0989 1.2129 3.0371 1.3687 1.7048 0.2832 3.4595 0.26522 5.1935 0.37295 0.018204-1.8773 0.60324-3.9865-0.051941-5.5884-1.9449-4.7553-6.0963-5.5465-10.696-5.3753-0.016404-1.4456-0.048432-2.4968 0.31909-3.5752 4.771 0.91656 9.1425 1.8604 13.514 2.8043m-76.612 146.37c-10.555-1.8793-21.109-3.7586-31.664-5.6378 19.773 10.218 40.391 12.692 61.896 7.1614 0.021087-0.46799 0.042175-0.93598 0.063263-1.404-9.7982 0-19.596 0-30.296-0.11963m12.993-13.03h-10.488c8.6163 5.1134 23.491 5.239 29.157 0.97228-5.9022-0.31259-11.826-0.62634-18.67-0.97228m40.664-13.291c-2.2874-0.29614-4.5749-0.59227-7.907-1.0237 8.0012 5.8725 16.473 6.1265 22.53 1.0551-4.8133 0-9.2645 0-14.623-0.031448m24.251-32.981c-5.7017-1.452-11.403-2.904-17.105-4.356-0.12982 0.6003-0.25966 1.2006-0.38948 1.8009 5.3418 3.6451 10.993 5.8867 17.495 2.5551m9.0934-25.377c-2.1067-4.53-5.7533-4.7886-10.567-3.9735 2.7967 3.9301 6.2054 4.4755 10.567 3.9735z"
        fill="#CCBDB8"
      />
      <path
        d="m1 149c1e-6 -49.262 1e-6 -98.524 1e-6 -148 51.021 0 102.04 0 153.53 0.39164-3.6771 15.571-10.615 29.45-19.39 42.284-0.84422-1.1326-1.4678-1.973-2.2565-3.0358-4.1353 5.5327-9.6963 2.8513-14.57 3.2854-5.2245 0.46526-10.667 0.91851-13.922-5.551-4.8566 9.3669-13.286 8.8795-20.323 7.2987-12.54-2.8169-18.687-1.6055-25.928 9.1304-1.6206 2.4028-3.0437 2.6048-5.2534 1.5891-1.4838-0.682-2.947-1.4088-5.2554-2.5168 0.39184 7.4434-5.0221 10.3-10.604 13.275-10.041-2.0692-19.658-4.0416-29.521-5.7687 0.35308 8.4647 5.8983 13.787 10.519 18.221-2.5001 2.3655-4.6658 4.4146-7.0356 6.8375-0.10794 6.1015-0.011736 11.829-0.18368 17.766-1.4069 2.6602-2.5457 5.1112-3.7388 8.0323-0.01212 2.9771 0.030136 5.484 0.064327 8.4012-0.073725 2.0561-0.13938 3.7019-0.488 5.6539-0.41253 6.0779-0.54211 11.85-0.96574 17.774-1.7542 1.746-3.2143 3.339-4.6744 4.932z"
        fill="#fff"
      />
      <path
        d="m19.148 187.14c6.0378 9.72 12.575 18.967 21.482 26.44 1.6733 1.404 1.4161 5.1088 2.1849 8.3156 11.293-2.7928 18.353 7.0502 27.995 10.15 15.948 5.127 31.889 8.6658 48.711 6.0209 2.769-0.43535 5.6444-1.2951 8.3206-0.91159 2.7214 0.39003 5.2574 2.0744 8.0168 3.5183-44.77 0.32623-89.682 0.32623-134.86 0.32623 0-29.687 0-59.375 0.3205-89.403 2.4314 0.53969 4.5423 1.4195 6.6632 2.7402 0.86854 12.214 5.9519 22.531 11.164 32.803z"
        fill="#fff"
      />
      <path
        d="m135.36 43.967c8.5541-13.126 15.492-27.004 19.638-42.576 0.44902-0.39164 0.89348-0.39164 1.6712-0.39164 10.388 7.2584 18.91 16.033 21.335 28.487 1.5439 7.9297 0.79227 16.316 0.88605 24.5 0.007584 0.66131-1.4117 1.339-2.9656 2.0149-14.956 4.7938-29.262 6.3544-43.756 1.5817 1.4301-0.79746 2.7518-1.3696 4.1305-1.5986 14.586-2.4219 27.603-7.8112 37.455-19.733 0.061492-0.4562-0.004471-0.69738-0.070435-0.93856-0.2881 0.16457-0.5762 0.32914-1.1958 0.58708-1.8387 1.1132-3.3136 2.1849-4.8582 3.1445-10.53 6.5417-21.318 12.513-33.623 14.638 13.359-10.537 24.338-22.437 28.606-39.247-8.6212 13.839-18.291 26.802-30.919 37.317 1.0256-2.7914 2.3466-5.2886 3.6675-7.7857z"
        fill="#FCE4D9"
      />
      <path
        d="m7.9737 153.9c-2.1109-0.87984-4.2218-1.7597-6.6532-2.768-0.3205-0.57294-0.3205-1.0174-0.3205-1.7952 1.4601-1.9264 2.9202-3.5194 4.9606-4.9873 1.0579 3.2669 1.5355 6.4087 2.0131 9.5505z"
        fill="#CEBFB9"
      />
      <path
        d="m135.14 43.675c-1.1003 2.7893-2.4212 5.2865-3.4233 8.0603 0.31883 0.27665 0.30212 0.22026-0.068848 0.066742-0.47794 0.30016-0.58488 0.75385-0.66104 1.2107 0.030792 0.003174 0.04042-0.057983-0.31177-0.16531-0.47446 0.32245-0.59674 0.75224-0.68442 1.1762 0.034592-0.005829 0.031907-0.075943-0.31709-0.046326-0.45722 0.69682-0.56542 1.364-0.62016 2.3828 1.0468 0.77025 2.0401 1.1889 3.0334 1.6076 14.576 4.3881 28.882 2.8275 43.428-1.9465-0.01088 0.90474-0.40939 1.7956-0.49199 1.9802 5.2407 5.9741 10.589 12.071 15.897 18.518-4.412-0.59354-8.7834-1.5374-13.962-2.5445-5.4048-0.35506-10.002-0.64683-14.777-0.98476-1.0634 0.089951-1.9503 0.22607-3.2448 0.57251-7.0751 1.503-13.929 2.1946-20.375 4.1999-20.259 6.3028-40.524 10.074-61.7 4.5869-2.8632-0.74197-6.8509 0.75802-9.672 2.3584-7.3863 4.19-14.375 8.4964-23.58 7.6286-6.1158-0.5765-12.238 0.9892-17.269 5.1468-4.6416 3.8353-6.9788 10.134-5.3676 14.565 0.027786-0.034218-0.043943 0.01146-0.075201 0.35574 0.51947 1.3126 1.0702 2.2809 1.6209 3.2493-0.39022 0.29137-0.78045 0.58273-1.1707 0.87409-1.8081-2.2252-3.6162-4.4504-5.7283-7.0498-2.6061 0.70284-5.5518 1.4973-8.4976 2.2917 1.1388-2.4509 2.2775-4.9019 3.9814-7.7182 1.9914-2.3689 3.4132-4.3756 4.8448-6.3753 4.0273-5.6256 2.0867-10.368-4.7539-11.609 2.1657-2.0491 4.3314-4.0982 6.8314-6.4637-4.6204-4.4342-10.166-9.7565-10.395-17.891 4.56 6.2682 8.7513 12.452 13.166 18.964 2.5061-2.1055 3.8626-3.2453 4.7948-4.0285-0.66682-3.5018-1.2282-6.4499-1.7896-9.3981 0.33713-0.066277 0.67426-0.13255 1.0114-0.19883 0.76501 2.2954 1.53 4.5909 2.332 6.9972 1.5204-0.42705 2.7116-0.76164 3.9932-0.73874-2.264 3.2881-4.6183 6.2186-6.9726 9.1492 0.40595 0.31355 0.81191 0.62711 1.2179 0.94066 3.9972-3.6696 7.9944-7.3393 12.556-11.527-2.8856 0.46959-4.9179 0.80032-6.8751 0.80133 2.1787-2.0284 4.2823-3.727 6.3859-5.4256 5.1591-3.0724 10.573-5.9286 10.181-13.372 2.3084 1.108 3.7716 1.8348 5.2554 2.5168 2.2097 1.0157 3.6328 0.81371 5.2534-1.5891 7.241-10.736 13.388-11.947 25.928-9.1304 7.0373 1.5807 15.467 2.0682 20.323-7.2987 3.2552 6.4695 8.6976 6.0162 13.922 5.551 4.8739-0.43404 10.435 2.2473 14.57-3.2854 0.78864 1.0628 1.4122 1.9032 2.2565 3.0358m-45.487 26.488c7.2287-5.3235 7.2893-13.33-0.97581-18.553 4.6532 6.7651 3.0446 12.609 0.020576 18.551 0.083069-0.0719 0.16613-0.1438 0.95524 0.002502m-26.021 2.11c2.694 0.38618 5.3818 0.82505 8.0833 1.1487 8.1383 0.97489 14.376-5.9779 12.109-13.789-0.4128-1.4226-2.4556-2.3722-4.0416-4.2072-6.2725-3.985-10.179-4.5255-13.156-0.11494-2.0369 3.0179-1.7789 7.5847-3.1559 11.74-0.34554 0.52524-0.69108 1.0505-1.2555 1.9084-0.97891-2.5203-1.847-4.7551-2.8796-7.4138-0.84165 4.5491-0.6536 8.2145 4.2963 10.727m46.499 1.7828c3.7743 0.89062 7.5486 1.7812 11.323 2.6719 0.35478-0.55914 0.70956-1.1183 1.0643-1.6774-0.65389-2.0768-0.73731-4.9161-2.1527-5.9751-1.0247-0.76672-3.9064 0.62037-5.7916 1.4361-1.4905 0.64494-2.725 1.8817-4.4429 3.5446m-75.013 15.764c1.0043-0.27596 2.0086-0.55193 3.8703-1.0635-8.9521-1.7512-12.978-0.52094-15.314 4.1032 3.5078-0.9692 7.0849-1.9575 11.444-3.0397m80.033-27c1.1137-1.9972 2.2274-3.9945 3.341-5.9917-0.33923-0.39606-0.67845-0.79212-1.0177-1.1882-1.5855 0.47814-4.5281 0.974-4.5221 1.4314 0.026229 2.01 0.90436 4.009 2.1987 5.7485z"
        fill="#735055"
      />
      <path
        d="m625.3 95.289c-3.5006 7.5512-7.0049 14.7-9.9617 22.068-1.6912 4.2144-4.7264 5.8299-8.7111 6.6931-1.8902-9.3892-3.9741-11.049-13.677-11.05-3.3268-3.1e-5 -6.6586-0.1124-9.9791 0.03215-3.2084 0.13966-6.4052 0.54416-9.8318 0.85255 0.54394-9.0396 7.5241-17.438 1.0931-26.976h11.56c1.3728 3.2688 2.2328 7.1096 4.3798 9.9916 2.9308 3.9342 7.2889 1.2692 10.786 0.50435 8.0451-1.7595 15.941-4.197 23.911-6.3108 0.58307-0.15464 1.2698 0.081695 2.274 0.16751-0.61639 1.4169-1.1166 2.5666-1.8425 4.0271z"
        fill="#fff"
      />
      <path
        d="m656.82 89.541c-0.57184-0.85836-0.97925-1.3446-1.7402-2.2529h11.93c0 1.7177-0.1593 3.35 0.030151 4.9408 0.55334 4.6475 4.5659 7.3451 9.0866 6.1614 9.2419-2.4197 18.47-4.891 27.715-7.2974 0.58551-0.15239 1.2687 0.070885 2.4981 0.16437-5.9207 11.969-11.655 23.561-17.644 35.668-1.171-1.2976-1.5525-1.5283-1.539-1.733 0.62384-9.4892-2.1304-12.564-13.035-12.209-3.3262 0.10839-6.6658-0.11629-9.9868 0.05481-3.2253 0.16618-6.4344 0.64446-8.5365 0.86748 0.46814-8.1066 0.92682-16.049 1.221-24.364z"
        fill="#fff"
      />
      <path
        d="m327.33 80.039c8.6909 0.66665 16.914 1.3632 25.137 2.0598-0.044555 0.30031-0.089111 0.60062-0.13367 0.90092-6.3589 0-12.732-0.2644-19.073 0.072433-6.6859 0.35516-13.45 0.75996-19.979 2.1152-6.1079 1.268-11.952 3.8093-18.158 5.0053 9.5076-2.5156 17.279-10.209 27.961-9.2509 1.2232 0.10977 2.5167-0.56296 4.2453-0.90281z"
        fill="#fff"
      />
      <path
        d="m850.71 80.958c8.5818-2.3825 16.143 0.18728 23.759 2.7268-17.649-2.6297-34.824 0.20937-51.85 4.251 4.389-1.6324 8.6791-3.6607 13.194-4.7878 4.6985-1.1729 9.6143-1.4754 14.896-2.1899z"
        fill="#fff"
      />
      <path
        d="m350.17 56.633c0.93182 0.34103 1.553 0.42302 2.1742 0.50501-0.008728 0.28532-0.017456 0.57064-0.026184 0.85595h-40.521c12.739-4.2183 25.291-5.1648 38.373-1.361z"
        fill="#fff"
      />
      <path
        d="m867.8 57h-27.932c10.658-3.6567 25.128-3.9248 37.375 0.92398-2.989-0.308-5.978-0.61599-9.4435-0.92398z"
        fill="#fff"
      />
      <path
        d="m862.89 153.02c-4.7843 2.0042-9.1793 3.99-13.637 5.8226-0.54523 0.22415-1.428-0.37254-2.1543-0.58885 0.22693-0.72041 0.28064-1.9367 0.70721-2.0857 5.1739-1.8073 10.399-3.4692 15.626-5.1201 0.32269-0.10191 0.77435 0.20471 1.518 0.42604-0.73389 0.64322-1.2118 1.0621-2.0599 1.546z"
        fill="#fff"
      />
      <path
        d="m727.31 208.31c6.2569-1.7155 12.162-3.2018 18.068-4.688 0.083741 0.37419 0.16754 0.7484 0.25128 1.1226-8.946 2.3332-17.892 4.6664-26.838 6.9995-0.10571-0.42371-0.21136-0.8474-0.31708-1.2711 2.8282-0.64456 5.6564-1.2891 8.8361-2.163z"
        fill="#fff"
      />
      <path
        d="m853.27 73h-4.7142c0.001892-0.38741 0.003845-0.77483 0.005737-1.1622h20.898c0.001343 0.38741 0.002686 0.77483 0.003967 1.1622h-16.193z"
        fill="#fff"
      />
      <path
        d="m713.61 213.01c-5.0316 1.0171-9.6732 2.0247-14.315 3.0323-0.13483-0.52458-0.26965-1.0492-0.40448-1.5737 2.1758-0.52718 4.3358-1.1367 6.5315-1.5611 2.8684-0.55431 5.7594-1.006 8.6561-1.3842 0.42304-0.055207 0.93109 0.54094 1.3998 0.83566-0.49274 0.21387-0.98547 0.42773-1.8682 0.65105z"
        fill="#fff"
      />
      <path
        d="m338.85 73h-14.221c7.02e-4 -0.39221 0.001374-0.78442 0.002076-1.1766h20.692c0.007538 0.39221 0.015075 0.78442 0.022613 1.1766h-6.496z"
        fill="#fff"
      />
      <path
        d="m162.35 73.036c4.5977 0.29176 9.1954 0.58353 14.201 0.96588 0.43958 1.1418 0.4716 2.1929 0.27002 3.933 0.63844 3.3963 1.5105 6.1037 2.3825 8.8112-0.16252 1.8696-0.32504 3.7391-0.86327 5.569-5.7049-7.4555-19.45-10.092-26.816-4.9641-0.75691 0.52693-1.4058 2.3516-1.0714 3.1303 4.2766 9.9585 19.293 12.915 27.647 5.5579 1.2939 3.4141 2.64 6.8418-2.572 8.258 3.4582 4.1762 0.098068 19.205-5.6006 23.623-6.5055-1.584-12.287-3.1358-18.069-4.6876-0.14857 0.59061-0.29715 1.1812-0.44574 1.7718 5.492 3.8604 11.554 5.5391 18.403 4.2082-2.8463 5.6297-4.7869 12.022-8.7418 16.718-6.6569 7.9043-14.589 14.736-21.996 22.006-0.93246 0.91533-1.9342 1.7601-3.3844 2.9544-1.9965 0.31677-3.5124 0.31677-5.4866 0.31677 0.96733 0.80241 1.5312 1.2701 2.095 1.7378-5.7148 3.2154-11.43 6.4307-17.598 9.9113-3.7952-1.0407-7.137-2.3467-11.848-4.1877 2.4445 2.8457 3.9231 4.5671 5.4017 6.2884-11.242 2.6954-22.485 5.3909-34.448 8.0978-4.6058-3.3538-8.4901-6.7192-12.374-10.085-0.40358 0.29871-0.80716 0.59741-1.2107 0.89612 2.3319 3.3722 4.6639 6.7444 6.9958 10.117-4.7191-0.026916-9.4382-0.053833-14.923-0.21701-7.7345-8.9129-14.703-17.69-22.144-27.06 2.9017 10.052 8.1812 17.91 14.342 25.273-8.2001-1.6336-16.4-3.2672-24.976-4.8701-5.5874-10.242-10.671-20.559-11.539-32.772-0.48757-3.5827-0.96516-6.7245-1.729-10.144-0.15665-6.0497-0.027078-11.821 0.71543-17.711 3.2516-0.1183 5.8902-0.1183 8.5289-0.1183 0.075482-0.38298 0.15096-0.76596 0.22644-1.1489-2.8631-1.6616-5.7261-3.3232-8.5892-4.9848-0.042256-2.5069-0.084512-5.0138-0.072393-7.9909 3.0001-1.2646 5.9458-2.059 8.5519-2.7618 2.1121 2.5994 3.9202 4.8246 5.7283 7.0498 0.39022-0.29137 0.78045-0.58272 1.1707-0.87409-0.55073-0.96832-1.1015-1.9367-1.2653-3.261 2.4472 1.6504 4.5074 3.6567 6.7342 6.0027 10.012 4.1709 21.742-4.4619 22.995-16.254 0.3515-3.3096-0.78302-4.5429-4.0011-4.6825-10.143-5.9636-23.547 1.7729-26.036 14.624-1.5834-4.4647 0.75376-10.764 5.3954-14.599 5.0317-4.1576 11.153-5.7233 17.269-5.1468 9.2051 0.86771 16.193-3.4386 23.58-7.6286 2.8212-1.6004 6.8088-3.1003 9.672-2.3584 21.176 5.4874 41.441 1.7159 61.7-4.5869 6.4457-2.0053 13.3-2.6969 20.268-3.7969-1.7474 1.2973-3.7954 2.4019-5.8434 3.5066 0.053131 0.65549 0.10626 1.311 0.15939 1.9664 3.3027 0.23776 6.6054 0.47552 9.9081 0.71326-0.2319-2.3719-0.46382-4.7437-0.69574-7.1156m-34.534 72.638c-0.13793 0.061554-0.27586 0.12312-0.4138 0.18469 0.21606 0.023498 0.43211 0.046997 0.30582 0.7576 4.5857 10.05 14.389 12.417 24.841 5.3322-9.3909 1.0231-17.232-1.5112-24.733-6.2745m-90.425-20.341c-0.5677 0.31304-1.1354 0.62609-1.7813 0.98224 6.9103 4.131 15.601 5.0091 18.64 1.9588 2.8241-2.8353 2.4911-10.448-0.70422-15.541-3.0537 6.7729-7.7922 11.421-16.154 12.6m45.696-34.344c-2.8182-0.020599-5.658-0.27379-8.4504-0.015159-6.5562 0.60721-11.733 5.8509-11.966 10.668 8.5274-3.1125 17.488-6.3832 26.046-9.5067-1.2092-0.27354-2.9822-0.67464-5.6294-1.1465m6.2294 65.931h3.4279c-6.2905-3.5769-12.351-7.0231-18.701-10.633 2.3831 7.0916 7.7687 9.7327 15.273 10.633m4.4235-35.671h-1.9211c-0.17154 0.45992-0.34308 0.91984-0.51462 1.3798 4.1874 1.7642 8.3748 3.5284 12.562 5.2927 0.28189-0.66096 0.56378-1.3219 0.84566-1.9829-3.4379-1.4872-6.8759-2.9745-10.972-4.6895m15.573-6.9302c2.9076 0.70475 5.8152 1.4095 8.7228 2.1143 0.15576-0.64134 0.31152-1.2827 0.46728-1.924-3.8599-1.0062-7.7198-2.0124-11.58-3.0186-0.13696 0.45872-0.27393 0.91743-0.41089 1.3761 0.69714 0.38407 1.3943 0.76815 2.8004 1.4522z"
        fill="#FEE6DB"
      />
      <path
        d="m178.08 95.65c-8.3334 7.7461-23.35 4.7892-27.626-5.1693-0.33441-0.7787 0.31448-2.6034 1.0714-3.1303 7.366-5.1279 21.111-2.4915 26.553 5.2546 0.068863 1.1057 0.02533 1.8811 0.002228 3.0451z"
        fill="#745155"
      />
      <path
        d="m114.71 223.3c10.249 0.059814 20.047 0.059814 29.845 0.059814-0.021088 0.46799-0.042176 0.93598-0.063263 1.404-21.505 5.5308-42.123 3.0566-61.896-7.1614 10.555 1.8793 21.109 3.7585 32.114 5.6976z"
        fill="#78575B"
      />
      <path
        d="m44.77 192.12c-6.4324-7.5032-11.712-15.361-14.614-25.413 7.4405 9.3709 14.409 18.148 21.686 27.067 2.8932 2.5978 5.4785 5.0523 8.0637 7.5068-6.4934-0.75301-10.762-4.758-15.136-9.1608z"
        fill="#7A595C"
      />
      <path
        d="m179.56 86.862c-1.2248-2.8238-2.0968-5.5313-2.7509-8.5332 4.8333-0.86008 8.9846-0.068962 10.93 4.6864 0.65518 1.6019 0.070145 3.7111 0.051941 5.5884-1.7339-0.10773-3.4887-0.089752-5.1935-0.37295-0.93823-0.15586-1.7923-0.81828-3.0371-1.3687z"
        fill="#745256"
      />
      <path
        d="m132.66 172.97c-0.92282-0.48729-1.4867-0.955-2.454-1.7574 1.9742 0 3.4901 0 5.4017 0.025207 11.625 1.6535 22.855 3.2818 32.941 4.7442-11.201 2.0483-23.506 1.8596-35.888-3.012z"
        fill="#7A595D"
      />
      <path
        d="m108.61 185.01c-1.8231-1.7749-3.3017-3.4963-5.7462-6.342 4.7109 1.841 8.0526 3.147 11.772 4.5426 5.3646 1.4489 10.352 2.8082 15.605 4.24-7.6382 2.0467-14.697 1.8059-21.631-2.4406z"
        fill="#7B5A5E"
      />
      <path
        d="m127.72 210.23c6.3837 0.32983 12.307 0.64358 18.21 0.95618-5.6665 4.2667-20.541 4.1412-29.157-0.97228 4.274 0 7.3808 0 10.948 0.016098z"
        fill="#7A595D"
      />
      <path
        d="m67.551 194.07c-2.6601-3.4538-4.992-6.8259-7.324-10.198 0.40358-0.29871 0.80716-0.59741 1.2107-0.89612 3.8843 3.3654 7.7687 6.7307 11.964 10.221 1.9353 1.2156 3.5594 2.3061 5.1835 3.3966-0.50738 0.65373-1.0147 1.3075-1.5221 1.9612-3.0614-1.4677-6.1228-2.9354-9.5124-4.4846z"
        fill="#7C5B5E"
      />
      <path
        d="m169.85 129.02c-6.8773 1.5228-12.94-0.15594-18.432-4.0164 0.14859-0.59061 0.29716-1.1812 0.44574-1.7718 5.782 1.5518 11.564 3.1036 17.7 4.746 0.44458 0.3494 0.43115 0.60268 0.28577 1.0423z"
        fill="#805E61"
      />
      <path
        d="m168.38 196.94c4.905 0.015716 9.3563 0.015716 14.17 0.015716-6.0574 5.0714-14.529 4.8174-22.53-1.0551 3.3321 0.4314 5.6196 0.72752 8.3608 1.0394z"
        fill="#7A595D"
      />
      <path
        d="m192.29 164.28c-6.6164 2.9938-12.268 0.75211-17.609-2.893 0.12982-0.6003 0.25966-1.2006 0.38948-1.8009 5.7017 1.452 11.403 2.904 17.22 4.6939z"
        fill="#7B5A5E"
      />
      <path
        d="m200.95 138.71c-4.0409 0.35059-7.4496-0.19476-10.246-4.1249 4.8139-0.81516 8.4605-0.55653 10.246 4.1249z"
        fill="#7E5E61"
      />
      <path
        d="m37.024 67.15c-1.6804 1.7955-3.784 3.4941-5.9371 5.5228-0.049515 0.33011-0.042446 0.27836-0.042446 0.27836-1.1912 0.3346-2.3825 0.66919-3.9029 1.0962-0.80196-2.4063-1.567-4.7018-2.332-6.9972-0.33713 0.066276-0.67426 0.13255-1.0114 0.19883 0.56139 2.9481 1.1228 5.8963 1.7896 9.3981-0.9322 0.78322-2.2887 1.923-4.7948 4.0285-4.4145-6.5125-8.6059-12.696-12.921-19.209 9.4937 1.6421 19.111 3.6145 29.152 5.6838z"
        fill="#FAE2D7"
      />
      <path
        d="m10.986 86.44c7.0447 0.86716 8.9853 5.6092 4.9581 11.235-1.4316 1.9997-2.8533 4.0064-4.5766 6.166-0.39321-5.5716-0.48941-11.299-0.38148-17.401z"
        fill="#321F21"
      />
      <path
        d="m7.1281 120.64c2.8711 1.2513 5.7342 2.9129 8.5973 4.5745-0.075481 0.38298-0.15096 0.76596-0.22644 1.1489-2.6386 0-5.2773 0-8.2459-0.18787-0.26431-1.8337-0.19865-3.4795-0.12493-5.5356z"
        fill="#856466"
      />
      <path
        d="m132.01 52.03c12.309-10.792 21.979-23.755 30.6-37.593-4.2683 16.81-15.247 28.71-28.586 39.235-0.018494 0.33279 0.011673 0.29581-0.32101 0.23661-0.77374 0.024506-1.2148 0.1082-1.6652-0.068207-0.01271-0.43359-0.016128-0.60708 0.022644-1.0564 0.013459-0.45968-0.015228-0.64349-0.043914-0.82731 0 0 0.016708 0.056385-0.006806 0.073993z"
        fill="#7C5A5D"
      />
      <path
        d="m132.02 53.059c0.003403 0.17348 0.006821 0.34697 0.15488 1.0614 0.71726 0.30949 1.2899 0.078022 1.8625-0.15345 0 0-0.030167 0.036983-0.050583 0.049156 12.324-2.4577 23.112-8.4294 33.642-14.971 1.5446-0.95955 3.0195-2.0313 5.0487-2.9656 0.66412 0.1862 0.80621 0.28693 0.94832 0.38766-9.7239 11.707-22.741 17.096-37.327 19.518-1.3787 0.22892-2.7004 0.8011-4.1305 1.5986-1.0753-0.034035-2.0686-0.4527-2.7861-1.3057 0.39716-1.0661 0.51855-1.6979 0.63995-2.3297 1.6e-5 0 0.002701 0.070114 0.27286 0.059295 0.42404-0.35795 0.57796-0.70508 0.73187-1.0522-1.6e-5 0-0.009644 0.061157 0.2232 0.12438 0.41194 0.035343 0.59103 0.007469 0.77011-0.020401z"
        fill="#7C5B5E"
      />
      <path
        d="m173.01 35.986c0.097611-0.3434 0.38571-0.50797 0.67381-0.67254 0.065964 0.24118 0.13193 0.48236 0.070435 0.93856-0.26956 0.11429-0.41165 0.013553-0.74425-0.26601z"
        fill="#7C5B5E"
      />
      <path
        d="m64.077 66.77c0.76797-3.8744 0.51-8.4412 2.5469-11.459 2.9768-4.4106 6.8838-3.8701 13.359 0.80378 0.62856 2.8814 1.6059 5.1343 1.374 7.255-0.64863 5.9312-8.8078 10.892-16.324 3.9865-0.365-0.39307-0.64718-0.51988-0.95657-0.58614m13.213-9.7334c-2.0411-1.8635-4.0888-1.7784-5.0113 0.82851-0.32976 0.93181 1.2562 2.5416 1.9678 3.842 1.1576-1.3425 2.3151-2.685 3.0435-4.6705z"
        fill="#2F1C1D"
      />
      <path
        d="m65.144 67.562c7.406 6.6995 15.565 1.739 16.214-4.1922 0.23192-2.1207-0.74542-4.3736-1.2262-6.9215 1.235 0.81262 3.2778 1.7622 3.6906 3.1848 2.2665 7.8109-3.9709 14.764-12.109 13.789-2.7015-0.32362-5.3893-0.76249-8.1512-1.6246 0.48217-1.7291 1.0322-2.9822 1.5822-4.2354z"
        fill="#EFD6CD"
      />
      <path
        d="m110.31 73.712c1.5331-1.3184 2.7675-2.5552 4.258-3.2001 1.8852-0.81572 4.7669-2.2028 5.7916-1.4361 1.4154 1.0591 1.4988 3.8983 2.1527 5.9751-0.35477 0.55914-0.70955 1.1183-1.0643 1.6774-3.7743-0.89062-7.5486-1.7812-11.138-3.0163z"
        fill="#F8DFD5"
      />
      <path
        d="m162.18 72.99c0.4084 2.418 0.64032 4.7899 0.87222 7.1618-3.3027-0.23775-6.6054-0.47551-9.9081-0.71326-0.053131-0.65548-0.10626-1.311-0.15939-1.9664 2.048-1.1046 4.096-2.2093 6.2511-3.7169 0.99396-0.5391 1.8808-0.67522 2.9442-0.76517z"
        fill="#805E61"
      />
      <path
        d="m89.035 70.018c2.6848-5.7987 4.2933-11.643-0.35986-18.408 8.2651 5.2238 8.2045 13.23 0.64441 18.464-0.33141-0.08973-0.28455-0.055481-0.28455-0.055481z"
        fill="#EED5CC"
      />
      <path
        d="m31.012 73.003c2.0067-0.33112 4.039-0.66185 6.9246-1.1314-4.562 4.1882-8.5592 7.8578-12.556 11.527-0.40595-0.31355-0.81191-0.62711-1.2179-0.94066 2.3543-2.9306 4.7086-5.8611 6.9726-9.1492-0.090279-0.3575-0.097348-0.30575-0.12298-0.30614z"
        fill="#EFD6CD"
      />
      <path
        d="m34.723 89.868c-3.9681 1.0352-7.5451 2.0236-11.053 2.9928 2.3367-4.6241 6.3621-5.8543 15.314-4.1032-1.8617 0.51157-2.866 0.78754-4.2613 1.1104z"
        fill="#E6CCC4"
      />
      <path
        d="m114.78 62.953c-0.93186-1.8713-1.81-3.8702-1.8362-5.8802-0.005967-0.45739 2.9366-0.95324 4.5221-1.4314 0.33922 0.39606 0.67844 0.79212 1.0177 1.1882-1.1137 1.9972-2.2274 3.9945-3.7036 6.1234z"
        fill="#F3DAD1"
      />
      <path
        d="m65.033 67.357c-0.44002 1.4589-0.99005 2.712-1.7641 4.243-4.5902-1.8388-4.7783-5.5041-3.9366-10.053 1.0327 2.6587 1.9007 4.8935 2.8796 7.4138 0.56438-0.85789 0.90992-1.3831 1.56-2.049 0.61391-0.07441 0.89609 0.052391 1.2611 0.44546z"
        fill="#EAD1C8"
      />
      <path
        d="m129.67 53.977c0.2276 0.6022 0.1062 1.234-0.34441 1.9485-0.22099-0.5845-0.11279-1.2517 0.34441-1.9485z"
        fill="#FCE4D9"
      />
      <path
        d="m132.06 52.783c-0.22125 0.30373-0.40034 0.33161-0.84308 0.29309-0.15669-0.52008-0.049744-0.97376 0.42819-1.2739 0.39966 0.33734 0.42834 0.52116 0.41489 0.98084z"
        fill="#FCE4D9"
      />
      <path
        d="m88.966 69.965c-0.10468 0.052521-0.18774 0.12442-0.10116 0.12497 0.16965-0.07135 0.12278-0.1056 0.10116-0.12497z"
        fill="#EED5CC"
      />
      <path
        d="m130.67 52.848c0.19829 0.45447 0.044373 0.8016-0.41428 1.1654-0.18246-0.41314-0.060181-0.84292 0.41428-1.1654z"
        fill="#FCE4D9"
      />
      <path
        d="m47.054 97.818c3.1413-0.22027 4.2758 1.0131 3.9243 4.3226-1.2524 11.792-12.982 20.425-22.845 15.87 0.11061-3.1017 1.2747-6.6608 0.1677-7.6324-3.1136-2.7328-0.82624-4.0754 0.64063-5.5842 4.9374-5.0786 11.48-6.1879 18.112-6.9757z"
        fill="#2F1C1D"
      />
      <path
        d="m37.738 125.22c8.0194-1.0681 12.758-5.7158 15.812-12.489 3.1953 5.0932 3.5283 12.706 0.70422 15.541-3.0383 3.0504-11.729 2.1722-18.64-1.9588 0.64586-0.35615 1.2136-0.6692 2.1237-1.0937z"
        fill="#CEBFB9"
      />
      <path
        d="m46.977 97.458c-6.5558 1.1476-13.098 2.257-18.036 7.3356-1.4669 1.5088-3.7543 2.8514-0.64063 5.5842 1.107 0.97157-0.057092 4.5306-0.33415 7.2928-2.21-1.6221-4.2702-3.6285-6.6862-5.6232-0.35567 0.011734-0.28394-0.033944-0.31172 2.74e-4 2.4617-12.817 15.865-20.553 26.008-14.59z"
        fill="#CBBCB7"
      />
      <path
        d="m83.529 91.024c2.2101 0.43648 3.9832 0.83758 5.1923 1.1111-8.5575 3.1235-17.518 6.3942-26.046 9.5067 0.23346-4.8175 5.4097-10.061 11.966-10.668 2.7924-0.25863 5.6321-0.00544 8.8874 0.050545z"
        fill="#79575B"
      />
      <path
        d="m127.98 146.03c7.3376 4.4073 15.179 6.9416 24.57 5.9185-10.452 7.0849-20.255 4.7174-24.687-5.6506 0.15322-0.31842 0.1177-0.26791 0.1177-0.26791z"
        fill="#7E5C5F"
      />
      <path
        d="m88.93 156.91c-7.1121-0.89122-12.498-3.5323-14.881-10.624 6.3491 3.6102 12.41 7.0564 18.701 10.633-1.0954 0-2.2617 0-3.8198-0.0094z"
        fill="#805F62"
      />
      <path
        d="m94.074 121.36c3.7671 1.6011 7.205 3.0884 10.643 4.5756-0.28188 0.66096-0.56377 1.3219-0.84566 1.9829-4.1874-1.7642-8.3748-3.5284-12.562-5.2927 0.17154-0.45992 0.34308-0.91984 0.51462-1.3798 0.64038 0 1.2808 0 2.2503 0.11391z"
        fill="#856466"
      />
      <path
        d="m108.96 114.17c-1.0516-0.53406-1.7488-0.91814-2.4459-1.3022 0.13696-0.45871 0.27392-0.91743 0.41089-1.3761 3.8599 1.0062 7.7198 2.0124 11.58 3.0186-0.15576 0.64134-0.31152 1.2827-0.46728 1.924-2.9076-0.70475-5.8152-1.4095-9.0773-2.2642z"
        fill="#7A595C"
      />
      <path
        d="m128.04 145.95c-0.1981-0.04863-0.41415-0.072129-0.6302-0.095627 0.13793-0.061569 0.27586-0.12314 0.49527-0.006714 0.081467 0.17798 0.11699 0.12747 0.13493 0.10234z"
        fill="#7E5C5F"
      />
      <path
        d="m133.7 53.908c-0.23993 0.29066-0.81256 0.52213-1.5205 0.47276 0.30572-0.36455 0.74678-0.44825 1.5205-0.47276z"
        fill="#FCE4D9"
      />
      <path
        d="m77.505 57.359c-0.94299 1.664-2.1005 3.0065-3.2581 4.349-0.71157-1.3003-2.2976-2.9102-1.9678-3.842 0.92258-2.6069 2.9703-2.692 5.2259-0.50699z"
        fill="#EBEAEA"
      />
    </svg>
